<?xml version="1.0" encoding="UTF-8" standalone="no"?><!DOCTYPE svg PUBLIC "-//W3C//DTD SVG 1.1//EN" "http://www.w3.org/Graphics/SVG/1.1/DTD/svg11.dtd"><svg width="100%" height="100%" viewBox="0 0 512 512" version="1.1" xmlns="http://www.w3.org/2000/svg" xmlns:xlink="http://www.w3.org/1999/xlink" xml:space="preserve" xmlns:serif="http://www.serif.com/" style="fill-rule:evenodd;clip-rule:evenodd;stroke-linejoin:round;stroke-miterlimit:2;"><rect id="Pagina-1" serif:id="Pagina 1" x="0" y="0" width="512" height="512" style="fill:none;"/><g id="scudo_bianco"><path d="M357.119,154.946c0.11,-1.69 -1.89,-2.66 -3.14,-1.52c-41.21,37.67 -82.31,2.77 -94.13,-9.03c-1.8,-1.8 -4.77,-1.66 -6.36,0.32c-38.29,47.68 -83.28,17.49 -96.22,7.07c-1.36,-1.1 -3.37,-0.03 -3.22,1.71l2.2,119.54c0.54,29.14 11.76,57.15 31.78,78.33c23.32,24.66 52.6,45.52 64.02,53.29c2.99,2.04 6.88,2.24 10.02,0.45c27.81,-15.81 47.01,-38.75 60.71,-53.93c19.63,-21.77 30.87,-49.81 31.57,-79.11l2.77,-117.12Zm17.94,-44.89l-2,164.74c-0.28,22.69 -5.81,45.04 -16.43,65.08c-14.72,27.76 -42.03,62.27 -91.6,83.29c-5.28,2.24 -11.27,2.14 -16.48,-0.26c-15.22,-7.02 -48.63,-25.38 -78.35,-62.19c-21.92,-27.14 -33.47,-61.19 -33.25,-96.08l0.96,-155.44c0,-2.09 2.59,-3.06 3.97,-1.48c17.6,20.06 88.87,92.43 114.04,-19.58c0.26,-1.17 1.9,-1.23 2.23,-0.08c6.39,22.19 38.42,113.19 112.59,20.49c1.43,-1.79 4.32,-0.78 4.32,1.51" style="fill:#fff;fill-rule:nonzero;"/></g></svg>