<?xml version="1.0" encoding="UTF-8" standalone="no"?>
<!DOCTYPE svg PUBLIC "-//W3C//DTD SVG 1.1//EN" "http://www.w3.org/Graphics/SVG/1.1/DTD/svg11.dtd">
<svg width="100%" height="100%" viewBox="0 0 2134 2134" version="1.1" xmlns="http://www.w3.org/2000/svg" xmlns:xlink="http://www.w3.org/1999/xlink" xml:space="preserve" xmlns:serif="http://www.serif.com/" style="fill-rule:evenodd;clip-rule:evenodd;stroke-miterlimit:10;">
    <g id="Pagina-1" serif:id="Pagina 1" transform="matrix(4.166667,0,0,4.166667,0,0)">
        <rect x="0" y="0" width="512" height="512" style="fill:none;"/>
        <g id="grimorio_bianco">
            <g transform="matrix(1,0,0,1,426.116,237.8843)">
                <path d="M0,-109.485C12.316,-122.913 -4.853,-140.76 -20.109,-130.802C-27.611,-125.9 -33.981,-121.937 -50.929,-91.494C-50.929,-91.494 -62.133,-74.053 -72.942,-20.35C-72.98,-20.176 -72.719,-20.089 -72.661,-20.263C-69.461,-29.36 -55.946,-66 -42.315,-77.224C-42.315,-77.224 -32.077,-83.402 -41.832,-64.212C-41.832,-64.212 -68.901,-18.9 -72.98,5.037C-73.067,5.549 -72.352,5.781 -72.12,5.308C-67.431,-4.621 -44.306,-37.046 -33.981,-47.854C-24.101,-58.208 -7.724,-71.211 -2.813,-74.885C-1.605,-75.784 -1.615,-77.592 -2.823,-78.491C-5.752,-80.647 -15.052,-82.261 -23.956,-82.29C-25.687,-82.3 -26.479,-84.446 -25.165,-85.567C-19.47,-90.421 -8.933,-99.74 0,-109.485M-22.303,-137.521C-1.421,-152.506 23.192,-124.093 5.336,-105.608C-0.116,-99.953 -7.212,-93.679 -16.319,-86.737C-16.744,-86.409 -16.57,-85.722 -16.029,-85.664C-13.254,-85.384 -7.27,-84.668 -3.132,-83.479C3.799,-81.478 5.588,-73.734 -0.29,-69.548C-19.944,-55.559 -63.671,-19.403 -79.999,41.261C-80.473,43.021 -86.273,-91.619 -22.303,-137.521" style="fill:white;fill-rule:nonzero;"/>
            </g>
            <g transform="matrix(1,0,0,1,346.117,87.1376)">
                <path d="M0,192.008C-0.474,193.767 -6.274,59.127 57.696,13.226C78.578,-1.759 103.192,26.654 85.336,45.138C79.883,50.794 72.787,57.068 63.68,64.01C63.255,64.338 63.429,65.025 63.97,65.083C66.745,65.363 72.729,66.078 76.867,67.267C83.798,69.269 85.587,77.012 79.709,81.198C60.055,95.187 16.328,131.344 0,192.008Z" style="fill:none;fill-rule:nonzero;stroke:white;stroke-width:1px;"/>
            </g>
            <g transform="matrix(1,0,0,1,353.1356,97.8692)">
                <path d="M0,145.052C-0.087,145.564 0.628,145.796 0.86,145.323C5.549,135.394 28.674,102.969 38.999,92.161C48.879,81.807 65.256,68.804 70.167,65.13C71.376,64.231 71.366,62.423 70.157,61.524C67.228,59.368 57.928,57.754 49.024,57.725C47.294,57.715 46.501,55.569 47.816,54.448C53.51,49.595 64.048,40.275 72.98,30.53C85.297,17.102 68.127,-0.744 52.872,9.213C45.37,14.115 38.999,18.078 22.052,48.521C22.052,48.521 10.847,65.962 0.039,119.665C0,119.839 0.261,119.926 0.319,119.752C3.519,110.655 17.034,74.015 30.665,62.791C30.665,62.791 40.903,56.613 31.149,75.803C31.149,75.803 4.08,121.115 0,145.052Z" style="fill:none;fill-rule:nonzero;stroke:white;stroke-width:1px;"/>
            </g>
            <g transform="matrix(1,0,0,1,249.6539,434.6588)">
                <path d="M0,-357.364L-145.149,-329.639C-169.592,-324.97 -182.884,-297.66 -170.636,-275.998C-162.45,-261.522 -144.379,-252.334 -106.191,-264.527C-103.891,-265.262 -101.444,-263.931 -100.843,-261.593L-37.95,-16.78C-34.94,-5.061 -23.346,2.368 -11.467,0.072C-6.56,-0.876 -0.683,-2.672 6.342,-5.683C31.195,-16.334 79.986,-41.63 105.868,-55.231C120.421,-62.879 130.9,-76.734 133.646,-92.943C136.233,-108.209 131.773,-122.752 101.883,-116.937C98.589,-116.296 95.339,-118.252 94.369,-121.464L28.239,-340.272C24.587,-352.356 12.4,-359.732 0,-357.364Z" style="fill:white;fill-rule:nonzero;stroke:white;stroke-width:8.7px;"/>
            </g>
            <g transform="matrix(1,0,0,1,122.3345,118.7722)">
                <path d="M0,42.748C0,42.748 -37.77,35.666 -5.508,12.06C26.754,-11.546 26.476,54.294 26.476,54.294" style="fill:white;fill-rule:nonzero;stroke:white;stroke-width:8.7px;"/>
            </g>
            <g transform="matrix(0.200576,0.979678,0.979678,-0.200576,229.86093,309.77534)">
                <path d="M93.174,-39.922C113.699,-24.834 113.081,-10.268 108.611,-0.412C105.476,6.5 99.908,12.002 93.174,15.503C42.635,41.777 59.533,-17.53 59.533,-17.53L32.19,117.609" style="fill:white;fill-rule:nonzero;stroke:white;stroke-width:8.7px;"/>
            </g>
            <g transform="matrix(0.966695,-0.255931,-0.255931,-0.966695,178.891159,160.441802)">
                <path d="M-1.54,11.836L90.953,11.836" style="fill:none;fill-rule:nonzero;stroke:white;stroke-width:8.7px;"/>
            </g>
            <g transform="matrix(0.96814,-0.250411,-0.250411,-0.96814,196.184718,205.338747)">
                <path d="M-1.398,10.991L86.385,10.991" style="fill:none;fill-rule:nonzero;stroke:white;stroke-width:8.7px;"/>
            </g>
            <g transform="matrix(0.961174,-0.275944,-0.275944,-0.961174,214.475195,254.746635)">
                <path d="M-1.723,12.249L87.055,12.249" style="fill:none;fill-rule:nonzero;stroke:white;stroke-width:8.7px;"/>
            </g>
            <g transform="matrix(0.961718,-0.27404,-0.27404,-0.961718,224.101623,301.128663)">
                <path d="M-1.718,12.297L88.032,12.297" style="fill:none;fill-rule:nonzero;stroke:white;stroke-width:8.7px;"/>
            </g>
            <g transform="matrix(0.937992,-0.346658,-0.346658,-0.937992,237.584051,348.382919)">
                <path d="M-2.93,16.377L91.559,16.378" style="fill:none;fill-rule:nonzero;stroke:white;stroke-width:8.7px;"/>
            </g>
        </g>
    </g>
</svg>
