<?xml version="1.0" encoding="UTF-8"?>
<svg id="libri_copia" data-name="libri copia" xmlns="http://www.w3.org/2000/svg" viewBox="0 0 512 512">
  <defs>
    <style>
      .cls-1 {
        fill: #fff;
      }
    </style>
  </defs>
  <path class="cls-1" d="M475.98,248.7c2.18-3.4,5.38-9.23,7.35-16.65,2.76-10.4,3.57-25.9-7.26-42.21,4.99-8.33,15.18-30.47,3.24-57.78-3.33-7.61-10.86-12.58-19.2-12.65l-177.62-1.44c-6.21-.06-12.34,1.36-17.86,4.08l-120.89,59.43c-2.13,1.05-3.61,3.1-4.07,5.63-.48,2.7.29,5.42,2.06,7.28.68.71,1.42,1.59,2.17,2.61.14.33.3.65.48.96,1.57,2.66,3.66,7.16,4.61,13.3.12,1.88.07,3.89-.22,6.04l-63.08,28.56c-2.36,1.07-4.09,3.28-4.75,6.08-.74,3.13-.04,6.38,1.85,8.7,3.53,4.33,8.9,14.01,6.87,31.36l-58.36,20.97c-2.09.75-3.63,2.56-4.12,4.83-.5,2.35.22,4.81,1.88,6.41,5.76,5.56,22.73,26.04-.89,56.38-1.57,2.02-1.85,4.83-.72,7.15,1.06,2.17,3.18,3.53,5.54,3.53l363.37.51h2.35s76.37-77.83,76.37-77.83c.27-.29,6.68-7.16,9.59-19.13,2.49-10.25,2.87-26.37-8.7-46.12ZM446.83,326.83l-30.85,31.44c1.19-5.99,1.25-11.76.16-17.29-1.97-9.95-7.27-16.81-11.42-20.84l45.36-44.8c4.21,9.21,9.54,28.37-3.25,51.49ZM450.71,148.33c4.12,6.61,9.94,23.14-3.96,54.23l-37.64,33.49c6.81-25.93.25-40.95-4.79-48.01l46.39-39.71ZM394.17,193.11c3.78,4.3,13.85,20.21-1.44,56.17l-240.67,1.24c8.44-16.36,9.55-30.06,8.06-40.37-.35-4.99-1.59-9.29-3.21-12.89l237.26-4.15ZM139.23,250.59l-37.33.19,46.13-20.89c-1.48,6.17-4.23,13.09-8.8,20.7ZM63.08,313.41l23.37-8.4c-1.49,2.74-3.32,5.57-5.52,8.48l-17.85-.08ZM98.85,261.95l295.53-1.52c2.72,2.47,9.02,9.19,10.51,19.58,1.53,10.66-2.28,22.4-11.3,34.92l-299.19-1.37c14-22.92,8.86-42.1,4.45-51.6ZM415.9,278.19c-1.63-10.92-7.08-18.72-11.23-23.25l45.98-40.91c4.53,7.22,10.79,23.8-3.75,48.76l-31.44,31.05c1.04-5.32,1.2-10.55.44-15.65ZM466.19,243.32c1.71-9.57.76-17.42-.86-23.23-1.65-5.92-4.17-10.45-6.29-13.53l9.21-8.19c12.18,20.83,1.7,39.42-2.06,44.95ZM465.17,186.18l-1.11.99c6.34-24.7.07-39.23-4.79-46.15l8.2-7.02c.65.75,1.21,1.6,1.62,2.54,11.5,26.31-1.78,46.64-3.92,49.65ZM269.55,132.06c3.98-1.95,8.4-2.96,12.85-2.93l171.96,1.4-60.07,51.42-234.56,4.1,109.82-53.99ZM43.61,324.49l351.01,1.61c2.58,1.97,8.76,7.58,10.6,17.23,2.06,10.8-1.88,23.34-11.7,37.3l-351.39-.49c15.77-25.14,8.56-44.84,1.48-55.64ZM467,306.27l-1.82,1.86c3.14-19.2-3.01-34.13-6.75-41.04l9.7-9.58c15.55,29.54-.04,47.56-1.12,48.76Z"/>
</svg>