<svg width="36" height="50" viewBox="0 0 36 50" fill="none" xmlns="http://www.w3.org/2000/svg">
<path d="M0 1.78394C0 1.2884 0.174757 0.867195 0.524272 0.520317C0.89043 0.173439 1.32316 0 1.82247 0H34.2025C34.7018 0 35.1262 0.173439 35.4757 0.520317C35.8252 0.867195 36 1.2884 36 1.78394C36 2.27948 35.8252 2.70069 35.4757 3.04757C35.1262 3.39445 34.7018 3.56789 34.2025 3.56789V9.81169C34.1193 10.9349 33.8447 12.1738 33.3786 13.5282C32.9293 14.8662 32.2219 16.1876 31.2566 17.4926C30.3079 18.7975 29.043 19.9455 27.4619 20.9366C25.8807 21.9111 23.9251 22.5801 21.595 22.9435V27.0565C23.9251 27.4199 25.8807 28.0971 27.4619 29.0882C29.043 30.0628 30.3079 31.2025 31.2566 32.5074C32.2219 33.8124 32.9293 35.1421 33.3786 36.4965C33.8447 37.8345 34.1193 39.0651 34.2025 40.1883V46.4321C34.7018 46.4321 35.1262 46.6055 35.4757 46.9524C35.8252 47.2993 36 47.7205 36 48.2161C36 48.7116 35.8252 49.1328 35.4757 49.4797C35.1262 49.8266 34.7018 50 34.2025 50H1.82247C1.32316 50 0.89043 49.8266 0.524272 49.4797C0.174757 49.1328 0 48.7116 0 48.2161C0 47.7205 0.174757 47.2993 0.524272 46.9524C0.89043 46.6055 1.32316 46.4321 1.82247 46.4321V40.1883C1.90569 39.0651 2.17198 37.8345 2.62136 36.4965C3.07074 35.1421 3.77809 33.8124 4.74341 32.5074C5.70874 31.2025 6.97365 30.0628 8.53814 29.0882C10.1193 28.0971 12.0749 27.4199 14.405 27.0565V22.9435C12.0749 22.5801 10.1193 21.9111 8.53814 20.9366C6.97365 19.9455 5.70874 18.7975 4.74341 17.4926C3.77809 16.1876 3.07074 14.8662 2.62136 13.5282C2.17198 12.1738 1.90569 10.9349 1.82247 9.81169V3.56789C1.32316 3.56789 0.89043 3.39445 0.524272 3.04757C0.174757 2.70069 0 2.27948 0 1.78394ZM8.11373 46.4321H27.9112C28.4438 46.4321 28.8932 46.2669 29.2594 45.9366C29.6422 45.6062 29.8669 45.2015 29.9334 44.7225C30.0166 44.26 29.8752 43.814 29.509 43.3845C28.527 42.0466 27.3037 40.9151 25.8391 39.9901C24.3911 39.0486 22.8599 38.3961 21.2455 38.0327C20.2802 37.6528 19.7975 37.0003 19.7975 36.0753V22.8692C19.7975 21.8616 20.2802 21.2587 21.2455 21.0605C23.1595 20.6475 24.8904 19.8877 26.4383 18.781C27.9861 17.6743 29.2594 16.3115 30.258 14.6928C31.2732 13.0575 31.9307 11.257 32.2302 9.29138C32.3135 8.74628 32.1637 8.25074 31.7809 7.80476C31.4147 7.35877 30.9653 7.13578 30.4327 7.13578H5.59223C5.043 7.13578 4.57698 7.35877 4.19417 7.80476C3.82802 8.25074 3.69487 8.74628 3.79473 9.29138C4.09431 11.257 4.74341 13.0575 5.74203 14.6928C6.75728 16.3115 8.03051 17.6743 9.56172 18.781C11.1096 19.8877 12.8405 20.6475 14.7545 21.0605C15.7198 21.2587 16.2025 21.8616 16.2025 22.8692V36.0753C16.2025 37.0664 15.7198 37.661 14.7545 37.8593C13.0569 38.2227 11.5007 38.8751 10.086 39.8166C8.67129 40.7417 7.47295 41.8731 6.49098 43.2111C5.94175 43.9214 5.86685 44.6316 6.2663 45.3419C6.68239 46.0687 7.2982 46.4321 8.11373 46.4321Z" fill="#545F71"/>
</svg>
