<?xml version="1.0" encoding="UTF-8"?>
<svg id="gatto3" xmlns="http://www.w3.org/2000/svg" viewBox="0 0 512 512">
  <defs>
    <style>
      .cls-1 {
        fill: #fff;
      }

      .cls-2 {
        stroke: #f2f2f2;
        stroke-width: .75px;
      }

      .cls-2, .cls-3 {
        stroke-miterlimit: 10;
      }

      .cls-2, .cls-4 {
        fill: #f2f2f2;
      }

      .cls-3 {
        stroke: #000;
      }

      .cls-5 {
        fill: #1a1a1a;
      }
    </style>
  </defs>
  <g id="orecchio_sx" data-name="orecchio sx">
    <path id="orecchio_sx-2" data-name="orecchio sx" class="cls-5" d="M148.27,223.41s-34.83-180.7,70.21-35"/>
    <g id="rientranza_orecchio_sx" data-name="rientranza orecchio sx">
      <path class="cls-5" d="M157,149.76s29.25,3.61,48.04,42.42"/>
      <path class="cls-4" d="M157,150.88c-.62-.08.32.06.53.1.75.14,1.49.32,2.22.51,2.67.7,5.27,1.66,7.78,2.81,8.94,4.08,16.74,10.36,23.16,17.77,5.4,6.23,9.78,13.28,13.38,20.68.63,1.3,2.57.16,1.94-1.14-5.89-12.11-14-23.28-24.71-31.56-6.02-4.65-12.86-8.45-20.2-10.53-1.34-.38-2.71-.72-4.1-.89s-1.42,2.07,0,2.25h0Z"/>
    </g>
  </g>
  <g id="orecchio_dx" data-name="orecchio dx">
    <path id="orecchio_dx-2" data-name="orecchio dx" class="cls-5" d="M364.56,223.41s34.19-180.83-70.85-35.13"/>
    <g id="rientranza_orecchio_dx" data-name="rientranza orecchio dx">
      <path class="cls-5" d="M355.81,149.76s-29.25,3.61-48.04,42.42"/>
      <path class="cls-4" d="M355.81,148.63c-3.97.5-7.88,2.01-11.49,3.65-9.22,4.17-17.31,10.69-23.9,18.33-5.47,6.35-9.96,13.48-13.62,21.01-.63,1.3,1.31,2.44,1.94,1.14,5.76-11.85,13.64-22.82,24.13-30.92,5.77-4.45,12.34-8.1,19.38-10.11.92-.26,1.85-.5,2.79-.69.26-.05.52-.09.77-.14s.33-.04,0,0c1.42-.18,1.44-2.43,0-2.25h0Z"/>
    </g>
  </g>
  <g id="testa">
    <ellipse class="cls-5" cx="256.3" cy="282.71" rx="135.46" ry="97.77"/>
  </g>
  <g id="baffi">
    <g id="baffo_sx_3" data-name="baffo sx 3">
      <path class="cls-4" d="M231.05,308.83c-3.24-.89-6.49-1.73-9.74-2.55-8.03-2.04-16.09-3.96-24.18-5.76-10.39-2.31-20.83-4.43-31.33-6.21-10.38-1.76-20.85-3.26-31.36-3.93-7.88-.51-16.23-.82-23.95,1.15-.71.18-1.42.39-2.12.63-1.36.47-.78,2.64.6,2.17,7.02-2.42,14.97-2.21,22.29-1.88,10.25.46,20.46,1.82,30.58,3.46,10.57,1.71,21.07,3.79,31.53,6.07,8.44,1.84,16.85,3.82,25.22,5.93,2.65.67,5.3,1.35,7.95,2.04,1.25.33,2.5.75,3.76,1.01.06.01.11.03.17.05,1.4.38,1.99-1.79.6-2.17h0Z"/>
    </g>
    <g id="baffo_sx_2" data-name="baffo sx 2">
      <path class="cls-4" d="M230.75,316.99c-3.41-.15-6.81-.24-10.22-.33-8.42-.21-16.85-.31-25.27-.29-10.75.03-21.49.24-32.23.77-10.41.52-20.84,1.31-31.15,2.87-7.41,1.12-15.34,2.45-22.05,5.98-.59.31-1.17.65-1.73,1.01-1.21.79-.08,2.74,1.14,1.94,2.54-1.65,5.42-2.71,8.31-3.58,3.91-1.18,7.93-2.01,11.96-2.7,9.99-1.7,20.12-2.52,30.23-3.09,10.73-.61,21.48-.87,32.22-.94,8.75-.05,17.5.02,26.25.22,2.82.06,5.63.14,8.44.23,1.3.04,2.64.19,3.94.14.06,0,.12,0,.18,0,1.45.06,1.44-2.19,0-2.25h0Z"/>
    </g>
    <g id="baffo_sx_1" data-name="baffo sx 1">
      <path class="cls-4" d="M230.75,321.61c-3.22.3-6.43.66-9.64,1.02-7.93.9-15.85,1.91-23.76,3.03-10.05,1.43-20.08,3.05-30.05,4.99-9.54,1.86-19.07,3.97-28.36,6.86-6.61,2.06-13.77,4.42-19.25,8.82-.47.38-.92.77-1.34,1.19-1.03,1.02.56,2.61,1.59,1.59,1.93-1.92,4.36-3.3,6.8-4.52,3.35-1.67,6.88-2.98,10.43-4.16,8.99-2.98,18.25-5.11,27.53-6.99,9.86-2,19.8-3.65,29.75-5.12,8.15-1.2,16.33-2.26,24.52-3.21,3.87-.45,7.77-.72,11.63-1.25.05,0,.11-.01.16-.02,1.43-.13,1.44-2.39,0-2.25h0Z"/>
    </g>
    <g id="baffo_dx_3" data-name="baffo dx 3">
      <path class="cls-4" d="M281.55,311c3.19-.88,6.39-1.7,9.59-2.51,7.96-2.02,15.95-3.93,23.96-5.72,10.33-2.31,20.71-4.42,31.14-6.2,10.29-1.76,20.66-3.25,31.08-3.93,7.75-.51,16-.88,23.6,1.06.71.18,1.42.39,2.12.63,1.37.47,1.96-1.7.6-2.17-7.13-2.46-15.21-2.29-22.64-1.97-10.29.45-20.55,1.81-30.72,3.44s-21.2,3.79-31.71,6.07c-8.55,1.86-17.08,3.86-25.57,5.99-2.71.68-5.42,1.37-8.12,2.08-1.24.33-2.55.58-3.76,1.01-.05.02-.11.03-.17.05-1.39.38-.8,2.55.6,2.17h0Z"/>
    </g>
    <g id="baffo_dx_2" data-name="baffo dx 2">
      <path class="cls-4" d="M281.25,319.24c3.38-.14,6.76-.24,10.14-.32,8.32-.21,16.65-.31,24.97-.29,10.64.02,21.28.22,31.91.74s20.67,1.24,30.9,2.77c7.31,1.09,15.24,2.33,21.86,5.8.59.31,1.17.65,1.73,1.01,1.22.79,2.35-1.15,1.14-1.94-5.94-3.87-13.6-5.27-20.47-6.45-10.07-1.74-20.28-2.6-30.48-3.19-10.83-.63-21.68-.9-32.52-.97-8.85-.06-17.7.02-26.55.22-4.12.09-8.36-.03-12.47.38-.06,0-.12,0-.18,0-1.44.06-1.45,2.31,0,2.25h0Z"/>
    </g>
    <g id="baffo_dx_1" data-name="baffo dx 1">
      <path class="cls-4" d="M281.25,323.86c3.16.3,6.33.65,9.48,1,7.79.88,15.56,1.87,23.32,2.97,9.87,1.4,19.72,2.99,29.51,4.88,9.5,1.84,18.98,3.92,28.23,6.76,6.43,1.97,13.61,4.22,18.92,8.45.47.37.92.77,1.34,1.19,1.03,1.02,2.62-.57,1.59-1.59-4.64-4.6-11.53-7-17.59-9.04-9.01-3.04-18.32-5.19-27.63-7.09-10.04-2.05-20.15-3.73-30.28-5.22-8.3-1.22-16.61-2.31-24.94-3.27-2.67-.31-5.33-.61-8-.89-1.24-.13-2.55-.39-3.8-.39-.05,0-.11-.01-.16-.02-1.44-.14-1.43,2.12,0,2.25h0Z"/>
    </g>
  </g>
  <path id="occhio_sx" data-name="occhio sx" class="cls-1" d="M360.98,260.7s-39.17-78.33-79.73,11.19c0,0,50.36,41.96,79.73-11.19Z"/>
  <ellipse id="pupilla_sx" data-name="pupilla sx" class="cls-3" cx="316.4" cy="263.31" rx="8.63" ry="19.45"/>
  <path id="occhio_dx" data-name="occhio dx" class="cls-1" d="M152.24,260.67s38.57-77.14,78.51,11.02c0,0-49.59,41.32-78.51-11.02Z"/>
  <ellipse id="pupilla_dx" data-name="pupilla dx" class="cls-3" cx="196.4" cy="263.31" rx="8.63" ry="19.45"/>
  <g id="ciuffetto">
    <path class="cls-4" d="M224.33,192.48c.68,2.72,1.42,5.43,2.17,8.13,1.56,5.55,3.23,11.07,5.18,16.5,1.59,4.41,3.22,9.42,6.25,13.09.88,1.06,2.18,2.14,3.66,1.77,1.66-.42,2.43-2.32,2.91-3.77,1.03-3.13,1.33-6.54,1.6-9.8.49-5.87.58-11.77.58-17.65,0-.87,0-1.73,0-2.6s-.29-2.3,0-3.09l-.52.67.17-.09-.87.11.19.03-.67-.52c.27.4.32,1.23.43,1.71.17.71.35,1.42.53,2.12.42,1.62.86,3.24,1.33,4.85.99,3.33,2.09,6.67,3.58,9.81.97,2.04,2.36,4.88,4.69,5.64,2.63.86,4.42-1.84,5.35-3.88,1.16-2.54,1.87-5.28,2.48-8,.43-1.93.8-3.88,1.13-5.83.2-1.19.39-2.38.56-3.57.09-.61.18-1.21.26-1.82.04-.31.09-.63.13-.94l.04-.3c.22-.64.01-.69-.62-.16l-.67-.52c.4.58.57,1.48.84,2.14.37.92.76,1.84,1.19,2.74.92,1.92,2,3.77,3.36,5.41,2.74,3.32,6.74,4.97,10.75,2.8,3.42-1.85,5.83-5.34,7.83-8.56.77-1.23-1.18-2.36-1.94-1.14-2.04,3.29-5.77,9.2-10.48,8.44-3.15-.51-5.28-3.8-6.69-6.37-.74-1.35-1.39-2.75-1.95-4.19-.48-1.22-1.18-4.14-3.08-2.77-.44.32-.54.69-.65,1.19-.21.97-.27,2-.41,2.98-.24,1.67-.5,3.33-.79,4.99-.46,2.59-.98,5.18-1.66,7.73-.63,2.34-1.43,5.7-3.3,7.25-.34.28-.59.33-.91.24-.19-.06-.31-.1-.68-.38.2.15-.16-.14-.21-.19-.18-.17-.34-.35-.5-.54-1.24-1.45-2.25-3.72-3.02-5.64-1.03-2.56-1.87-5.19-2.63-7.84-.68-2.34-1.29-4.7-1.85-7.07-.12-.5-.17-1.06-.48-1.48-.83-1.18-2.37-.43-2.53.82-.19,1.59.04,3.34.04,4.94s0,3.27-.02,4.91c-.05,4.91-.19,9.82-.66,14.71-.26,2.73-.57,5.54-1.44,8.15-.17.51-.22.66-.4,1.02-.07.13-.14.26-.21.39-.05.09-.38.54-.17.29-.08.09-.16.19-.25.27-.23.2-.05.05-.07.07-.09.08-.32.16-.11.09-.19.06-.35-.13-.05.02-.09-.05-.22-.03-.31-.08.4.24-.57-.4-.24-.14-.22-.17-.41-.36-.6-.56-.27-.29-.47-.55-.55-.66-2.53-3.46-4.02-7.77-5.46-11.77-2.87-7.95-5.03-16.1-7.26-24.24-.04-.15-.08-.31-.12-.46-.35-1.4-2.52-.81-2.17.6h0Z"/>
  </g>
  <path id="naso" class="cls-2" d="M238.08,307.82c3.93-2.26,17.53-8.48,36.45.31.29.13.26.56-.05.64-3.6.9-16.35,4.79-18.15,15.27-.06.33-.5.38-.62.07-1.48-3.74-6.7-14.65-17.45-15.5-.41-.03-.54-.57-.18-.78Z"/>
  <g id="bocca">
    <path class="cls-4" d="M263.55,342.18c-1.17-.04-2.09-1.12-2.73-2.23-.98-1.7-1.53-3.63-1.98-5.52-.93-3.9-1.36-7.92-1.6-11.92-.05-.92-.1-1.83-.12-2.75-.03-1.45-2.19-1.45-2.25,0-.09,2.37-.31,4.74-.6,7.09-.48,4.02-1.09,8.28-2.73,12.01-.56,1.28-1.44,2.98-2.78,3.36s-.8,2.56.6,2.17c3.57-1,4.87-5.86,5.66-8.98,1.05-4.15,1.57-8.44,1.9-12.7.08-.99.15-1.97.19-2.96h-2.25c.06,2.81.29,5.63.63,8.42.53,4.38,1.17,9.3,3.51,13.13,1.01,1.66,2.5,3.06,4.54,3.12,1.45.04,1.45-2.21,0-2.25h0Z"/>
  </g>
</svg>