<?xml version="1.0" encoding="UTF-8"?>
<svg xmlns="http://www.w3.org/2000/svg" viewBox="0 0 512 512">
  <defs>
    <style>
      .cls-1, .cls-2 {
        fill: beige;
      }

      .cls-3 {
        isolation: isolate;
      }

      .cls-2 {
        mix-blend-mode: multiply;
      }

      .cls-4 {
        fill: #42210b;
      }
    </style>
  </defs>
  <g class="cls-3">
    <g id="libro">
      <path id="libro-2" data-name="libro" class="cls-4" d="M127.87,179.42v203.34h119.57s16.61,10.47,28.93,0l110.29-.62-3.7-191.01-128.28,9.24-126.82-20.95Z"/>
      <g id="pagina_1" data-name="pagina 1">
        <path id="pagina_in_3_piano" data-name="pagina in 3 piano" class="cls-1" d="M132.8,173.26v202.72h247.09l-3.08-193.48s-81.33-3.45-119.54,17.68c0,0-49.29-25.08-124.47-26.93Z"/>
        <path id="ombre_pagina_1" data-name="ombre pagina 1" class="cls-2" d="M164.84,175.57s-7.08-1.05-16.26-1.57l1.54,201.98,107.14-4.93,122.62,4.93-3.08-193.48-6.12.08,2.42,188.47-115.84-8.01-92.43,8.01v-195.48Z"/>
      </g>
      <g id="pagina_2" data-name="pagina 2">
        <g id="pagine_in_2_piano" data-name="pagine in 2 piano">
          <path class="cls-1" d="M159.64,166.11h0c23.53-11.1,51.42-7.13,70.87,10.15,7.05,6.27,15.09,14.16,24.17,24.11l91.89-17.77c5.74-1.11,11.54-1.95,17.36-2.52l6.71-.66,2.46,191.63h-115.84l-96.87.39-.76-205.33Z"/>
        </g>
        <g id="ombre_pagina_2" data-name="ombre pagina 2">
          <path id="ombre_pagina_2-2" data-name="ombre pagina 2" class="cls-2" d="M200.3,161.18s26.23,91.63,8.91,188.31c0,0,22.89,2.99,48.06,21.57,0,0-45.72-19.31-74.6-5.99,0,0,21.83-122.38,2.56-205.18,0,0,8.77-.83,15.08,1.3Z"/>
          <path class="cls-2" d="M346.61,182.61v180.43c-9.42-7.21-65.79-19.14-89.35,8.4,0,0,58.6-20.29,104.17-.39v-190.7l-14.82,2.26Z"/>
          <path class="cls-2" d="M171.33,161.9l3.59,208.28s-9.56-180.25-3.59-208.28Z"/>
          <path class="cls-2" d="M169.37,371.44s-9.56-180.25-3.59-208.28l3.59,208.28"/>
        </g>
      </g>
      <path id="pagina_dx" data-name="pagina dx" class="cls-1" d="M188.87,124.58s33,102.11,12.05,225.34c0,0,27.78,1.99,55.56,20.59.33.22.78-.01.78-.41l-.92-171.55s-6.47-45.64-67.47-73.98Z"/>
      <g id="pagina_sx" data-name="pagina sx">
        <path id="pagina_sx-2" data-name="pagina sx" class="cls-1" d="M256.34,198.56l.92,171.06c0,.52.62.79,1.01.43,5.61-5.29,34.92-29.05,88.35-7.02v-180.43s-67.59-22.86-90.27,15.95Z"/>
        <path id="ombre_pagina_3" data-name="ombre pagina 3" class="cls-2" d="M256.34,198.56l.92,171.06s19.86-14.41,32.92-14.56l-7.46-176.22s-16.14,1.76-26.37,19.73Z"/>
      </g>
    </g>
  </g>
</svg>