<svg width="50" height="50" viewBox="0 0 50 50" fill="none" xmlns="http://www.w3.org/2000/svg">
<g opacity="0.7" clip-path="url(#clip0_233_6045)">
<path d="M15.0256 33.865C15.0256 34.0962 15.1105 34.2965 15.2803 34.466C15.4501 34.6201 15.6508 34.6972 15.8823 34.6972H29.1497C29.3812 34.6972 29.5742 34.6201 29.7285 34.466C29.8983 34.2965 29.9832 34.0962 29.9832 33.865C29.9832 33.6338 29.8983 33.4412 29.7285 33.2871C29.5742 33.1176 29.3812 33.0328 29.1497 33.0328H15.8823C15.6508 33.0328 15.4501 33.1176 15.2803 33.2871C15.1105 33.4412 15.0256 33.6338 15.0256 33.865ZM15.8129 28.0629H37.5546C37.7862 28.0629 37.9791 28.1476 38.1335 28.3172C38.3033 28.4713 38.3882 28.6639 38.3882 28.8951C38.3882 29.1262 38.3033 29.3266 38.1335 29.4961C37.9791 29.6502 37.7862 29.7272 37.5546 29.7272H15.8129C15.5813 29.7272 15.3807 29.6502 15.2109 29.4961C15.0565 29.3266 14.9793 29.1262 14.9793 28.8951C14.9793 28.6639 15.0565 28.4713 15.2109 28.3172C15.3807 28.1476 15.5813 28.0629 15.8129 28.0629ZM14.9793 23.8789C14.9793 24.11 15.0565 24.3104 15.2109 24.4799C15.3807 24.634 15.5813 24.711 15.8129 24.711H37.5546C37.7862 24.711 37.9791 24.634 38.1335 24.4799C38.3033 24.3104 38.3882 24.11 38.3882 23.8789C38.3882 23.6477 38.3033 23.4551 38.1335 23.301C37.9791 23.1315 37.7862 23.0467 37.5546 23.0467H15.8129C15.5813 23.0467 15.3807 23.1315 15.2109 23.301C15.0565 23.4551 14.9793 23.6477 14.9793 23.8789ZM15.7203 18.0999H37.5546C37.7862 18.0999 37.9791 18.1846 38.1335 18.3541C38.3033 18.5082 38.3882 18.7009 38.3882 18.932C38.3882 19.1632 38.3033 19.3635 38.1335 19.5331C37.9791 19.6872 37.7862 19.7642 37.5546 19.7642H15.7203C15.4887 19.7642 15.2881 19.6872 15.1183 19.5331C14.9639 19.3635 14.8867 19.1632 14.8867 18.932C14.8867 18.7009 14.9639 18.5082 15.1183 18.3541C15.2881 18.1846 15.4887 18.0999 15.7203 18.0999ZM5.81029 0H14.3542V0.023116H37.5546C38.9285 0.023116 40.1711 0.354446 41.2825 1.01711C42.4093 1.67977 43.3046 2.57359 43.9683 3.69857C44.6321 4.80814 44.964 6.0487 44.964 7.42025V41.6089H46.9321C47.426 41.5935 47.8891 41.6859 48.3213 41.8863C48.7535 42.0866 49.1317 42.3717 49.4559 42.7416C49.6874 43.0498 49.8495 43.3888 49.9421 43.7587C50.0193 44.1285 50.0193 44.5061 49.9421 44.8914C49.726 45.7081 49.3555 46.5018 48.8307 47.2723C48.3059 48.0428 47.4646 48.6747 46.3069 49.1678C45.1492 49.6764 43.5053 49.9461 41.3751 49.9769C41.2516 49.9923 41.1204 50 40.9815 50H14.8404C13.6364 50 12.5327 49.6995 11.5294 49.0985C10.5415 48.5129 9.7465 47.7192 9.14449 46.7175C8.55792 45.7312 8.26463 44.6371 8.26463 43.435L8.33409 8.32178H2.42978C1.9667 8.32178 1.56536 8.2139 1.22577 7.99815C0.886173 7.76699 0.623759 7.51271 0.438526 7.23532C0.0526231 6.6343 -0.0785838 5.97164 0.044905 5.24734V5.22423C0.322755 3.83726 0.971071 2.61982 1.98985 1.57189C3.02407 0.523964 4.29755 0 5.81029 0ZM11.6683 8.32178V8.34489L11.5988 43.435C11.5988 44.3289 11.9153 45.0917 12.5482 45.7235C13.181 46.3554 13.9451 46.6713 14.8404 46.6713H16.2065V46.6482C16.9629 46.5095 17.6343 46.1859 18.2209 45.6773C18.7921 45.1533 19.178 44.5138 19.3786 43.7587C19.5639 43.096 19.9343 42.5643 20.49 42.1637C21.0457 41.763 21.6709 41.5781 22.3655 41.6089H41.6298V7.42025C41.6298 6.29527 41.2284 5.33981 40.4258 4.55386C39.6385 3.7525 38.6815 3.35183 37.5546 3.35183H11.02V3.32871H10.8811C11.4213 4.37664 11.6914 5.48621 11.6914 6.65742V8.32178H11.6683Z" fill="#545F71"/>
</g>
<defs>
<clipPath id="clip0_233_6045">
<rect width="50" height="50" fill="white"/>
</clipPath>
</defs>
</svg>
