<svg width="49" height="50" viewBox="0 0 49 50" fill="none" xmlns="http://www.w3.org/2000/svg">
<path d="M15.2686 27.1739V29.6716C15.2686 30.2421 15.4707 30.7354 15.875 31.1517C16.2949 31.5526 16.7925 31.753 17.3679 31.753C17.9433 31.753 18.4331 31.5526 18.8375 31.1517C19.2573 30.7354 19.4673 30.2421 19.4673 29.6716V27.1739C19.4673 26.6035 19.2573 26.1178 18.8375 25.7169C18.4331 25.3006 17.9433 25.0925 17.3679 25.0925C16.7925 25.0925 16.2949 25.3006 15.875 25.7169C15.4707 26.1178 15.2686 26.6035 15.2686 27.1739ZM29.4275 27.1739V29.6716C29.4275 30.2421 29.6297 30.7354 30.034 31.1517C30.4538 31.5526 30.9515 31.753 31.5268 31.753C32.1022 31.753 32.5921 31.5526 32.9964 31.1517C33.4162 30.7354 33.6262 30.2421 33.6262 29.6716V27.1739C33.6262 26.6035 33.4162 26.1178 32.9964 25.7169C32.5921 25.3006 32.1022 25.0925 31.5268 25.0925C30.9515 25.0925 30.4538 25.3006 30.034 25.7169C29.6297 26.1178 29.4275 26.6035 29.4275 27.1739ZM31.3869 0.855689L31.4802 0.763182C31.5268 0.732347 31.5579 0.70922 31.5735 0.693802C32.1955 0.231267 32.9108 0 33.7195 0C34.5592 0 35.2979 0.254394 35.9355 0.763182C36.5575 1.24113 37.1329 1.78076 37.6616 2.38205C39.0923 3.893 40.2508 5.58896 41.1372 7.46994C42.3657 10.0755 42.9799 12.8199 42.9799 15.7031V28.3302H46.2689C46.6888 28.3302 47.0931 28.4228 47.4819 28.6078C47.8551 28.7928 48.1739 29.0549 48.4382 29.3941C48.7026 29.7333 48.8736 30.1187 48.9514 30.5504C49.0292 30.9667 49.0136 31.3753 48.9048 31.7761C48.1583 34.3972 47.0076 36.8332 45.4525 39.0842C43.8974 41.3352 42.0236 43.2778 39.8309 44.9121C37.6383 46.5618 35.2435 47.8184 32.6465 48.6818C30.0495 49.5606 27.3748 50 24.6223 50H24.3891C21.6366 50 18.9619 49.5606 16.3649 48.6818C13.7679 47.8184 11.3731 46.5618 9.18047 44.9121C4.67077 41.5356 1.64615 37.157 0.106633 31.7761C-0.0177722 31.3753 -0.0333229 30.9667 0.0599813 30.5504C0.137735 30.1341 0.308793 29.7487 0.573155 29.3941C0.821966 29.0549 1.14076 28.7928 1.52952 28.6078C1.90274 28.4228 2.30706 28.3302 2.74248 28.3302H6.00813V15.7031C6.00813 12.8199 6.62238 10.0678 7.85089 7.44681C8.36406 6.36756 8.97054 5.33457 9.67032 4.34783C10.0746 3.70028 10.5256 3.07586 11.0232 2.47456C11.5364 1.85785 12.1118 1.28739 12.7494 0.763182C13.4025 0.254394 14.1489 0 14.9887 0C15.1442 0 15.3074 0.00770891 15.4785 0.0231267C16.2405 0.0693802 16.9169 0.323774 17.5079 0.786309C20.4625 3.25316 22.4919 6.32131 23.596 9.99075H25.3688H25.2288L25.8819 8.51064C26.5351 6.87635 27.3903 5.35769 28.4478 3.95467C29.3342 2.75208 30.3139 1.71909 31.3869 0.855689ZM9.3904 15.7031V28.654C9.37485 29.4866 9.07162 30.1958 8.48069 30.7817C7.88976 31.3676 7.17443 31.6605 6.33469 31.6605H3.58222C3.67552 31.938 3.76882 32.2155 3.86213 32.4931H13.2625C15.9217 32.4931 18.402 33.1483 20.7035 34.4588C20.5791 33.9809 20.6724 33.5261 20.9835 33.0944C21.2945 32.6472 21.7377 32.4237 22.313 32.4237H26.5817C27.1726 32.4237 27.6236 32.6549 27.9346 33.1175C28.2456 33.58 28.3156 34.058 28.1446 34.5513C30.4927 33.1792 33.0275 32.4931 35.7489 32.4931H45.1493C45.2426 32.2155 45.3359 31.938 45.4292 31.6605H42.6534C41.8136 31.6605 41.0983 31.3676 40.5074 30.7817C39.9164 30.1958 39.621 29.4866 39.621 28.654V15.7031C39.621 13.745 39.2711 11.8409 38.5713 9.99075H37.335C38.2992 12.1955 38.7812 14.5159 38.7812 16.9519V21.2535C38.2836 20.3592 37.7238 19.519 37.1018 18.7327C36.0443 17.4221 34.8314 16.2889 33.4629 15.333C32.11 14.3771 30.6482 13.6525 29.0776 13.1591C29.3109 12.0644 29.653 11.0083 30.1039 9.99075H28.9143C28.6655 10.6691 28.4556 11.3552 28.2845 12.049L27.9813 13.321H21.0068L20.7035 12.0722C20.5325 11.3629 20.3226 10.6691 20.0737 9.99075H18.8608C19.2962 11.0083 19.6383 12.0644 19.8871 13.1591C18.3165 13.6525 16.847 14.3771 15.4785 15.333C14.1256 16.2889 12.9282 17.4221 11.8863 18.7327C11.2487 19.5344 10.6889 20.3747 10.2068 21.2535V16.9056C10.2068 14.485 10.6733 12.1801 11.6064 9.99075H10.4168C9.71697 11.8409 9.37485 13.745 9.3904 15.7031ZM15.1753 7.30805C14.1956 8.52606 13.418 9.89824 12.8427 11.4246C12.2828 12.9356 11.964 14.5236 11.8863 16.1887C13.6435 14.4002 15.634 13.0435 17.8578 12.1184C17.5934 11.255 17.2591 10.4379 16.8547 9.66697L16.5515 9.18131C16.1472 8.51835 15.6884 7.89393 15.1753 7.30805ZM44.4261 34.1582H35.7489C32.9186 34.1582 30.345 34.9753 28.0279 36.6096L25.3454 38.5291C25.4076 39.408 25.7653 40.1557 26.4184 40.7724C27.0716 41.3737 27.8491 41.6744 28.751 41.6744C29.3109 41.6744 29.5908 41.9519 29.5908 42.5069C29.5908 42.7382 29.513 42.9309 29.3575 43.0851C29.202 43.2547 29.0076 43.3395 28.7744 43.3395C27.888 43.3395 27.0638 43.1236 26.3018 42.692C25.5554 42.2757 24.9567 41.7283 24.5057 41.05C24.0392 41.7283 23.4249 42.2757 22.6629 42.692C21.9165 43.1236 21.1001 43.3395 20.2137 43.3395C19.6539 43.3395 19.374 43.062 19.374 42.5069C19.374 41.9519 19.6539 41.6744 20.2137 41.6744C21.1312 41.6744 21.9165 41.366 22.5696 40.7493C23.2228 40.1326 23.5804 39.3848 23.6426 38.506L20.9835 36.6096H20.9601C18.6586 34.9753 16.0928 34.1582 13.2625 34.1582H4.56191C6.16363 37.5347 8.48846 40.3176 11.5364 42.5069C15.3619 45.2667 19.6461 46.6543 24.3891 46.6697H24.6223C29.3653 46.6543 33.6495 45.2667 37.475 42.5069C40.5229 40.3176 42.84 37.5347 44.4261 34.1582ZM31.0836 12.1184C33.3229 13.0589 35.3212 14.4157 37.0784 16.1887C37.0007 14.5082 36.6663 12.9047 36.0754 11.3784C35.5 9.83657 34.7147 8.45668 33.7195 7.23867C32.5532 8.67253 31.6746 10.2991 31.0836 12.1184Z" fill="#545F71"/>
</svg>
