<svg width="47" height="50" viewBox="0 0 47 50" fill="none" xmlns="http://www.w3.org/2000/svg">
<path d="M36.0825 8.86145C37.2488 9.6116 38.0713 10.5793 38.5498 11.7646C39.0283 12.9498 39.1479 14.1726 38.9087 15.4328C38.6844 16.6781 38.1087 17.7658 37.1816 18.696C36.389 19.4912 35.4694 20.0313 34.4227 20.3163C33.3909 20.6014 32.3516 20.6239 31.3049 20.3838C30.2581 20.1438 29.3086 19.6487 28.4563 18.8985C27.6189 18.1484 26.9908 17.1357 26.5721 15.8604C26.2432 14.8102 26.2207 13.7525 26.5049 12.6872C26.789 11.607 27.3198 10.6768 28.0974 9.89666C29.1591 8.84644 30.4376 8.20881 31.9329 7.98377C33.4432 7.75872 34.8264 8.05128 36.0825 8.86145ZM29.6675 14.8702C29.9516 15.7704 30.4077 16.4155 31.0357 16.8056C31.6787 17.1957 32.3516 17.3532 33.0544 17.2782C33.7722 17.2032 34.3853 16.9106 34.8937 16.4005C35.5815 15.7254 35.8731 14.8927 35.7685 13.9025C35.6787 12.9123 35.2002 12.1396 34.3329 11.5845H34.3105C33.7871 11.2394 33.1516 11.1119 32.404 11.2019C31.6563 11.2769 30.9834 11.607 30.3853 12.1921C29.9965 12.5822 29.7423 13.0248 29.6226 13.5199C29.518 14 29.5329 14.4426 29.6675 14.8477V14.8702ZM1.83179 45.8591C0.874772 45.049 0.291591 44.0213 0.0822435 42.776C-0.0822435 41.7858 0 40.8106 0.328974 39.8504C0.642995 38.8902 1.15889 38.0575 1.87665 37.3524C3.0131 36.2121 3.85049 35.372 4.38881 34.8318C4.92714 34.2917 5.37574 33.8416 5.73462 33.4816L6.00378 33.2115C6.30285 32.8964 6.64677 32.5439 7.03556 32.1538C7.4393 31.7487 7.99258 31.1936 8.69539 30.4884C9.41315 29.7833 10.3702 28.8306 11.5664 27.6303C12.7777 26.4151 14.3478 24.8473 16.2767 22.9269L16.1646 22.7918C15.9253 22.5518 15.8057 22.2667 15.8057 21.9367C15.8057 21.6066 15.9253 21.3215 16.1646 21.0815C16.5683 20.6764 17.0244 20.5939 17.5328 20.8339C17.2936 20.3238 17.3758 19.8662 17.7796 19.4612C18.0039 19.2361 18.2655 19.1161 18.5646 19.1011C18.8786 19.0861 19.1553 19.1761 19.3945 19.3711C18.3179 16.8806 18.0263 14.2926 18.5198 11.607C19.0282 8.81644 20.2992 6.43094 22.3329 4.45053C24.6955 2.00502 27.5591 0.564724 30.9236 0.129633C34.2731 -0.305457 37.3984 0.35468 40.2993 2.11004C43.4246 4.07545 45.4807 6.84353 46.4676 10.4143C47.4396 14 47.0807 17.4357 45.391 20.7214C43.7012 24.0221 41.1218 26.3176 37.6526 27.6078C34.2582 28.8681 30.8787 28.8306 27.5142 27.4953L27.8282 27.8329C28.0675 28.0579 28.1871 28.343 28.1871 28.6881C28.1871 29.0181 28.0675 29.3032 27.8282 29.5432C27.4245 29.9483 26.9684 30.0308 26.46 29.7908C26.6992 30.3009 26.617 30.7585 26.2133 31.1636C25.974 31.4036 25.6824 31.5237 25.3385 31.5237C25.0095 31.5237 24.7329 31.4036 24.5086 31.1636L24.06 30.7135L19.6188 35.1694L23.0955 38.6801C23.5291 39.1152 23.8282 39.6328 23.9927 40.233C24.1422 40.8331 24.1273 41.4332 23.9478 42.0333C23.7983 42.6785 23.4917 43.2486 23.0282 43.7437C22.5796 44.2238 22.0413 44.5764 21.4132 44.8014C20.6805 44.9514 19.9553 44.9214 19.2375 44.7114C19.0132 44.6664 18.7814 44.6289 18.5422 44.5989C18.6319 44.7939 18.6917 44.989 18.7216 45.184C18.8861 45.8441 18.931 46.5118 18.8562 47.1869C18.6917 47.832 18.3777 48.3872 17.9141 48.8523C17.4655 49.3174 16.9197 49.6399 16.2767 49.82C15.9029 49.94 15.5216 50 15.1328 50C14.6842 50 14.258 49.9175 13.8543 49.7524C13.4356 49.5874 13.0692 49.3474 12.7552 49.0323L9.27857 45.5216C8.0823 46.5118 6.70659 47.0294 5.15144 47.0744C3.89535 47.0744 2.7888 46.6693 1.83179 45.8591ZM18.5646 25.1998C16.6207 27.1502 15.0431 28.7331 13.8319 29.9483C12.6206 31.1636 11.6636 32.1238 10.9608 32.8289C10.258 33.5341 9.70474 34.0892 9.301 34.4943C8.91221 34.8844 8.5608 35.2369 8.24678 35.552L8.15706 35.6195C7.76828 36.0096 7.30472 36.4747 6.7664 37.0148C6.24303 37.5549 5.37574 38.4251 4.16451 39.6253C3.82059 39.9704 3.56638 40.368 3.40189 40.8181C3.25236 41.2682 3.2075 41.7333 3.26731 42.2134C3.31217 42.5284 3.4318 42.8135 3.62619 43.0686C3.82059 43.3236 4.06732 43.5187 4.36638 43.6537C4.93461 43.8187 5.49536 43.8187 6.04864 43.6537C6.61687 43.4886 7.09537 43.1886 7.48416 42.7535L21.7721 28.418L18.5646 25.1998ZM21.9067 21.8692L25.0918 25.0873L26.6843 23.512L27.7161 24.0296C30.3479 25.3649 33.0694 25.6124 35.8806 24.7723C38.7068 23.9171 40.8451 22.2067 42.2956 19.6412C43.7461 17.0757 44.1124 14.3601 43.3947 11.4945C42.662 8.6289 41.0545 6.40844 38.5722 4.83311C36.8526 3.75289 34.9834 3.22028 32.9647 3.23528C29.7049 3.25028 26.9235 4.42053 24.6207 6.74601C22.9459 8.38135 21.9515 10.3618 21.6375 12.6872C21.3235 15.0127 21.7497 17.1957 22.916 19.2361L23.4768 20.2938L22.6245 21.149C22.5048 21.269 22.3852 21.3891 22.2656 21.5091C22.1459 21.6291 22.0263 21.7491 21.9067 21.8692ZM17.331 37.4649L11.5664 43.2486L15.0431 46.7368C15.2823 46.7368 15.4917 46.6693 15.6711 46.5343C15.6412 46.2942 15.6038 46.0617 15.559 45.8366C15.3496 45.2215 15.3123 44.5989 15.4468 43.9687C15.5814 43.3386 15.873 42.7835 16.3216 42.3034C16.8001 41.8533 17.3683 41.5607 18.0263 41.4257C18.6693 41.2907 19.3048 41.3282 19.9328 41.5382C20.1571 41.5983 20.3814 41.6358 20.6057 41.6508C20.7104 41.4857 20.7927 41.3132 20.8525 41.1332C20.8674 41.0431 20.8525 40.9906 20.8076 40.9756L17.331 37.4649Z" fill="#545F71"/>
</svg>
