<svg width="50" height="50" viewBox="0 0 50 50" fill="none" xmlns="http://www.w3.org/2000/svg">
<path d="M47.9578 2.06663C48.8709 2.97969 49.4742 4.0395 49.7677 5.24605C50.0774 6.4526 50.0774 7.65915 49.7677 8.8657C49.4742 10.056 48.8709 11.1076 47.9578 12.0207L47.9334 12.0451L49.1073 13.2191C49.4497 13.5615 49.6209 13.9772 49.6209 14.4664C49.6209 14.9392 49.4497 15.355 49.1073 15.7137L40.4006 24.4204C40.0419 24.7628 39.618 24.934 39.1288 24.934C38.656 24.934 38.2484 24.7628 37.906 24.4204C37.319 23.8335 37.1967 23.1731 37.5391 22.4394L30.4955 29.4831L30.6177 29.6298C30.7971 29.7928 30.8868 29.9967 30.8868 30.2412C30.8868 30.4858 30.7971 30.6978 30.6177 30.8771L29.3949 32.1244C29.2155 32.2875 29.0036 32.369 28.759 32.369C28.5144 32.369 28.3106 32.2875 28.1476 32.1244L28.0008 31.9777L16.1636 43.8149C15.6418 44.3367 15.0141 44.5976 14.2804 44.5976C13.563 44.5976 12.9434 44.3367 12.4216 43.8149L10.1471 46.0894C9.57646 46.6601 8.93243 47.0759 8.21502 47.3367L1.00017 49.9537C0.706682 50.0515 0.445806 49.9944 0.21754 49.7825C0.00557794 49.5542 -0.0514887 49.2933 0.0463398 48.9998L2.66325 41.8094C2.94043 41.0594 3.3562 40.4154 3.91056 39.8773L6.18508 37.5784C5.67963 37.0729 5.42691 36.4533 5.42691 35.7196C5.42691 34.9859 5.67963 34.3582 6.18508 33.8364L18.0223 21.9992L17.7778 21.7546C17.5984 21.5753 17.5087 21.3633 17.5087 21.1187C17.5087 20.8741 17.5984 20.6703 17.7778 20.5073L19.0006 19.26C19.18 19.0806 19.3919 18.991 19.6365 18.991C19.8811 18.991 20.093 19.0806 20.2724 19.26L20.5169 19.5046L35.5336 4.51234C35.126 3.74602 35.232 3.05306 35.8516 2.43348C36.4548 1.8139 37.1396 1.70792 37.906 2.11554L37.9793 2.06663C38.8924 1.13726 39.9522 0.525828 41.1588 0.232343C42.3653 -0.0774476 43.5637 -0.0774476 44.7539 0.232343C45.9605 0.525828 47.0285 1.13726 47.9578 2.06663ZM45.4387 9.5505L45.4632 9.52605C46.148 8.84125 46.4904 8.01786 46.4904 7.05588C46.4904 6.07759 46.148 5.24605 45.4632 4.56125C44.7621 3.86015 43.9224 3.5096 42.9441 3.5096C41.9821 3.5096 41.1588 3.86015 40.474 4.56125H40.4495L45.4387 9.5505ZM37.9793 7.05588L23.0116 21.9992L28.0008 26.9884L42.9441 12.0451L37.9793 7.05588ZM9.31559 35.7196L14.2804 40.7089L25.5062 29.4831L20.5169 24.4938L9.31559 35.7196ZM8.06827 44.4264C8.41067 44.084 8.58187 43.6763 8.58187 43.2035C8.58187 42.7144 8.41067 42.2986 8.06827 41.9562C7.72587 41.5975 7.3101 41.4181 6.82096 41.4181C6.33182 41.4181 5.91605 41.5975 5.57365 41.9562C5.23125 42.2986 5.06005 42.7144 5.06005 43.2035C5.06005 43.6763 5.23125 44.084 5.57365 44.4264C5.91605 44.7851 6.33182 44.9644 6.82096 44.9644C7.3101 44.9644 7.72587 44.7851 8.06827 44.4264Z" fill="#545F71"/>
</svg>
