<svg width="24" height="50" viewBox="0 0 24 50" fill="none" xmlns="http://www.w3.org/2000/svg">
<g opacity="0.7" clip-path="url(#clip0_233_6033)">
<path d="M13.1716 0.74331L16.4522 6.36769C16.9949 7.24314 17.2662 8.20945 17.2662 9.2666C17.2662 10.5055 16.888 11.6122 16.1316 12.5867C15.3916 13.5448 14.446 14.1807 13.295 14.4945V16.9722H20.4481C21.2703 16.9722 21.9938 17.2283 22.6187 17.7403C23.26 18.2359 23.6793 18.8718 23.8767 19.6482H24V31.6898C24 32.4827 23.7369 33.1764 23.2107 33.7711C22.7009 34.3492 22.0761 34.6878 21.3361 34.7869V45.6888C21.3361 46.8781 20.9168 47.894 20.0781 48.7364C19.2395 49.5788 18.2282 50 17.0442 50H6.06783C4.88386 50 3.87256 49.5788 3.03392 48.7364C2.19527 47.894 1.77595 46.8781 1.77595 45.6888V30.2032C1.24974 30.0215 0.822199 29.6994 0.49332 29.2369C0.16444 28.7744 0 28.254 0 27.6759V19.6482H0.0986639C0.295992 18.8718 0.707091 18.2359 1.33196 17.7403C1.97328 17.2283 2.71326 16.9722 3.5519 16.9722H10.409V14.4945C9.3073 14.1807 8.37821 13.5695 7.62179 12.6611C6.88181 11.736 6.48715 10.6706 6.43782 9.46482C6.40493 8.45722 6.62693 7.51569 7.1038 6.64024L7.12847 6.61546C7.1778 6.51635 7.21891 6.44202 7.2518 6.39247L10.557 0.74331C10.8366 0.24777 11.2641 0 11.8397 0C12.4317 0 12.8756 0.24777 13.1716 0.74331ZM17.7595 23.2161H16.8715V25C16.8715 25.7433 16.6084 26.3793 16.0822 26.9078C15.5725 27.4199 14.9476 27.6759 14.2076 27.6759C13.4841 27.6759 12.8592 27.4199 12.333 26.9078C11.8068 26.3793 11.5437 25.7433 11.5437 25V23.2161H5.32785V45.6888C5.32785 46.1843 5.57451 46.4321 6.06783 46.4321H17.0442C17.5211 46.4321 17.7595 46.1843 17.7595 45.6888V23.2161ZM14.7996 9.5887C14.7996 8.77932 14.5118 8.08556 13.9363 7.50743C13.3607 6.91278 12.6701 6.61546 11.8643 6.61546C11.0421 6.61546 10.3433 6.91278 9.76773 7.50743C9.19219 8.08556 8.90442 8.77932 8.90442 9.5887C8.90442 10.4146 9.19219 11.1166 9.76773 11.6947C10.3433 12.2729 11.0421 12.5619 11.8643 12.5619C12.6701 12.5619 13.3607 12.2729 13.9363 11.6947C14.5118 11.1166 14.7996 10.4146 14.7996 9.5887Z" fill="#545F71"/>
</g>
<defs>
<clipPath id="clip0_233_6033">
<rect width="24" height="50" fill="white"/>
</clipPath>
</defs>
</svg>
