<svg width="38" height="49" viewBox="0 0 38 49" fill="none" xmlns="http://www.w3.org/2000/svg">
<path d="M10.0527 16.4029C10.99 16.4029 11.7867 16.0748 12.4428 15.4188C13.1145 14.747 13.4504 13.9425 13.4504 13.0052C13.4504 12.0523 13.1145 11.2477 12.4428 10.5917C11.7867 9.91987 10.99 9.584 10.0527 9.584C9.09972 9.584 8.28738 9.91987 7.61565 10.5917C6.95953 11.2477 6.63147 12.0523 6.63147 13.0052C6.63147 13.9425 6.95953 14.747 7.61565 15.4188C8.28738 16.0748 9.09972 16.4029 10.0527 16.4029ZM31.3998 13.0052C31.3998 13.9425 31.064 14.747 30.3922 15.4188C29.7362 16.0748 28.9394 16.4029 28.0021 16.4029C27.0492 16.4029 26.2369 16.0748 25.5651 15.4188C24.909 14.747 24.5809 13.9425 24.5809 13.0052C24.5809 12.0523 24.909 11.2477 25.5651 10.5917C26.2369 9.91987 27.0492 9.584 28.0021 9.584C28.9394 9.584 29.7362 9.91987 30.3922 10.5917C31.064 11.2477 31.3998 12.0523 31.3998 13.0052ZM37.1409 0C37.1409 0.999797 36.9613 1.93711 36.602 2.81193C36.2583 3.68675 35.7818 4.46784 35.1726 5.1552C35.938 6.04565 36.5317 7.04545 36.9534 8.1546C37.3908 9.26374 37.6096 10.4432 37.6096 11.6929C37.6096 13.0052 37.469 14.1846 37.1878 15.2313C36.9222 16.2623 36.5317 17.1684 36.0161 17.9495C36.5004 19.0742 36.8675 20.2537 37.1175 21.4878C37.3674 22.7063 37.4924 23.9639 37.4924 25.2605C37.4924 27.5569 37.1019 29.7362 36.3207 31.7983C35.5553 33.8447 34.4774 35.6959 33.0871 37.3518C31.6967 39.0077 30.072 40.3746 28.2131 41.4525C29.0722 42.8272 29.6034 44.3191 29.8065 45.9282C29.8845 46.5531 29.7049 47.0764 29.2675 47.4982C28.8458 47.92 28.3459 48.1308 27.7678 48.1308H9.98236C9.41997 48.1308 8.92007 47.92 8.48266 47.4982C8.06087 47.0764 7.88902 46.5531 7.96713 45.9282C8.1546 44.366 8.6623 42.9132 9.49027 41.5697C7.60002 40.4918 5.9441 39.1249 4.52252 37.469C3.10093 35.813 1.99179 33.9462 1.19507 31.8685C0.398357 29.7909 0 27.5882 0 25.2605C0 23.9171 0.132785 22.6126 0.398357 21.3473C0.67955 20.0818 1.0779 18.8712 1.59343 17.7152C1.12477 16.9341 0.76547 16.0514 0.51552 15.0672C0.265571 14.0674 0.140596 12.9427 0.140596 11.6929C0.140596 10.4432 0.359302 9.26374 0.796713 8.1546C1.23413 7.04545 1.83557 6.04565 2.60103 5.1552C1.99179 4.46784 1.5075 3.68675 1.14821 2.81193C0.804525 1.92149 0.632684 0.984175 0.632684 0H10.1698C11.0759 0 11.9429 0.156218 12.7708 0.468655C13.5988 0.76547 14.3487 1.17945 15.0204 1.71059H22.7298C23.3859 1.17945 24.1279 0.76547 24.9558 0.468655C25.7839 0.156218 26.6587 0 27.5803 0H37.1409ZM10.99 42.343C10.2557 43.499 9.8027 44.7643 9.63086 46.139C9.63086 46.2172 9.65429 46.2797 9.70115 46.3265C9.77927 46.4047 9.873 46.4437 9.98236 46.4437H27.7678C27.8927 46.4437 27.9865 46.4047 28.049 46.3265C28.1115 46.264 28.1349 46.2015 28.1193 46.139C27.9474 44.7331 27.4788 43.4365 26.7134 42.2492C25.3387 42.8897 23.9093 43.3584 22.4252 43.6553C21.2066 44.1239 19.9803 44.3582 18.7462 44.3582C17.4965 44.3582 16.2545 44.1161 15.0204 43.6318C13.63 43.3506 12.2866 42.921 10.99 42.343ZM18.2541 23.2453C15.5984 23.2453 13.1145 23.0891 10.8025 22.7766C8.50609 22.4642 6.52212 21.8237 4.85058 20.8552C4.39755 22.2143 4.17103 23.6124 4.17103 25.0496C4.17103 26.9398 4.54596 28.8925 5.29581 30.9078C6.04565 32.9074 7.0845 34.7663 8.41235 36.4848C9.75583 38.1876 11.3102 39.5701 13.0754 40.6324C14.8408 41.6946 16.731 42.2258 18.7462 42.2258C20.7614 42.2258 22.6438 41.6946 24.3935 40.6324C26.1588 39.5701 27.7053 38.1876 29.0332 36.4848C30.3766 34.7663 31.4233 32.9074 32.1732 30.9078C32.9386 28.8925 33.3213 26.9398 33.3213 25.0496C33.3213 23.6593 33.1027 22.3002 32.6653 20.9723C31.0093 21.894 29.0488 22.5032 26.7837 22.8001C24.5184 23.0969 22.0971 23.2453 19.5194 23.2453H18.2541ZM10.0527 18.5353C11.0681 18.5353 11.9898 18.2854 12.8177 17.7855C13.6613 17.2856 14.333 16.6216 14.8329 15.7937C15.3328 14.9501 15.5827 14.0128 15.5827 12.9818C15.5827 11.9664 15.3328 11.0447 14.8329 10.2167C14.333 9.3731 13.6613 8.70136 12.8177 8.20146C11.9898 7.70156 11.0681 7.45161 10.0527 7.45161C9.02161 7.45161 8.0843 7.70156 7.24072 8.20146C6.41276 8.70136 5.74883 9.3731 5.24894 10.2167C4.74904 11.0447 4.49909 11.9664 4.49909 12.9818C4.49909 14.0128 4.74904 14.9501 5.24894 15.7937C5.74883 16.6216 6.41276 17.2856 7.24072 17.7855C8.0843 18.2854 9.02161 18.5353 10.0527 18.5353ZM27.9787 18.5353C28.9941 18.5353 29.9236 18.2854 30.7672 17.7855C31.6108 17.2856 32.2747 16.6216 32.759 15.7937C33.2589 14.9501 33.5088 14.0128 33.5088 12.9818C33.5088 11.9664 33.2589 11.0447 32.759 10.2167C32.2747 9.3731 31.6108 8.70136 30.7672 8.20146C29.9236 7.70156 28.9941 7.45161 27.9787 7.45161C26.9633 7.45161 26.0338 7.70156 25.1902 8.20146C24.3467 8.70136 23.6749 9.3731 23.175 10.2167C22.6907 11.0447 22.4485 11.9664 22.4485 12.9818C22.4485 14.0128 22.6907 14.9501 23.175 15.7937C23.6749 16.6216 24.3467 17.2856 25.1902 17.7855C26.0338 18.2854 26.9633 18.5353 27.9787 18.5353ZM16.4029 17.8089H21.6518C21.6518 17.0746 21.3941 16.4576 20.8786 15.9577C20.3631 15.4422 19.746 15.1766 19.0273 15.161C18.2932 15.161 17.6683 15.4188 17.1527 15.9343C16.6528 16.4498 16.4029 17.0746 16.4029 17.8089Z" fill="#545F71"/>
</svg>
