<?xml version="1.0" encoding="UTF-8"?>
<svg xmlns="http://www.w3.org/2000/svg" viewBox="0 0 512 512">
  <defs>
    <style>
      .cls-1 {
        mix-blend-mode: multiply;
      }

      .cls-1, .cls-2 {
        fill: #8fc1c9;
      }

      .cls-3 {
        fill: #3c4672;
      }

      .cls-4 {
        isolation: isolate;
      }

      .cls-5 {
        fill: #1a1a1a;
      }

      .cls-6 {
        fill: #00a99d;
      }
    </style>
  </defs>
  <g class="cls-4">
    <g id="pavone">
      <g id="coda">
        <path id="coda-2" data-name="coda" class="cls-3" d="M224.09,88.83c-163.43,117.57-143.1,197.66-85.91,244.55,67.65,55.45,165.8,55.44,233.54.09,57.37-46.87,78.09-127.55-85.42-245.2-21.88-15.74-40.33-15.18-62.2.56Z"/>
        <g id="piume_coda" data-name="piume coda">
          <path class="cls-6" d="M183.98,327.89c-18.22.81-21.27-6.02-19.83-12.56,1.7-7.74,8.67-13.25,16.59-13.11,6.71.11,12.71,4.68,7.69,22.22-.67,2.35-2.01,3.34-4.45,3.45Z"/>
          <path class="cls-5" d="M185.78,327.91c-13.02.58-15.2-4.3-14.17-8.98,1.21-5.53,6.2-9.47,11.86-9.37,4.79.08,9.08,3.35,5.49,15.88-.48,1.68-1.44,2.39-3.18,2.47Z"/>
          <path class="cls-6" d="M328.47,331.56c18.22.81,21.27-6.02,19.83-12.56-1.7-7.74-8.67-13.25-16.59-13.11-6.71.11-12.71,4.68-7.69,22.22.67,2.35,2.01,3.34,4.45,3.45Z"/>
          <path class="cls-5" d="M326.67,331.58c13.02.58,15.2-4.3,14.17-8.98-1.21-5.53-6.2-9.47-11.86-9.37-4.79.08-9.08,3.35-5.49,15.88.48,1.68,1.44,2.39,3.18,2.47Z"/>
          <path class="cls-6" d="M138.79,279.4c-18.22.81-21.27-6.02-19.83-12.56,1.7-7.74,8.67-13.25,16.59-13.11,6.71.11,12.71,4.68,7.69,22.22-.67,2.35-2.01,3.34-4.45,3.45Z"/>
          <path class="cls-5" d="M140.59,279.41c-13.02.58-15.2-4.3-14.17-8.98,1.21-5.53,6.2-9.47,11.86-9.37,4.79.08,9.08,3.35,5.49,15.88-.48,1.68-1.44,2.39-3.18,2.47Z"/>
          <path class="cls-6" d="M196.61,279.4c18.22.81,21.27-6.02,19.83-12.56-1.7-7.74-8.67-13.25-16.59-13.11-6.71.11-12.71,4.68-7.69,22.22.67,2.35,2.01,3.34,4.45,3.45Z"/>
          <path class="cls-5" d="M194.81,279.41c13.02.58,15.2-4.3,14.17-8.98-1.21-5.53-6.2-9.47-11.86-9.37-4.79.08-9.08,3.35-5.49,15.88.48,1.68,1.44,2.39,3.18,2.47Z"/>
          <path class="cls-6" d="M312.15,279.4c-18.22.81-21.27-6.02-19.83-12.56,1.7-7.74,8.67-13.25,16.59-13.11,6.71.11,12.71,4.68,7.69,22.22-.67,2.35-2.01,3.34-4.45,3.45Z"/>
          <path class="cls-5" d="M313.95,279.41c-13.02.58-15.2-4.3-14.17-8.98,1.21-5.53,6.2-9.47,11.86-9.37,4.79.08,9.08,3.35,5.49,15.88-.48,1.68-1.44,2.39-3.18,2.47Z"/>
          <path class="cls-6" d="M369.97,279.4c18.22.81,21.27-6.02,19.83-12.56-1.7-7.74-8.67-13.25-16.59-13.11-6.71.11-12.71,4.68-7.69,22.22.67,2.35,2.01,3.34,4.45,3.45Z"/>
          <path class="cls-5" d="M368.17,279.41c13.02.58,15.2-4.3,14.17-8.98-1.21-5.53-6.2-9.47-11.86-9.37-4.79.08-9.08,3.35-5.49,15.88.48,1.68,1.44,2.39,3.18,2.47Z"/>
          <path class="cls-6" d="M174.53,232.47c-18.22.81-21.27-6.02-19.83-12.56,1.7-7.74,8.67-13.25,16.59-13.11,6.71.11,12.71,4.68,7.69,22.22-.67,2.35-2.01,3.34-4.45,3.45Z"/>
          <path class="cls-5" d="M176.33,232.49c-13.02.58-15.2-4.3-14.17-8.98,1.21-5.53,6.2-9.47,11.86-9.37,4.79.08,9.08,3.35,5.49,15.88-.48,1.68-1.44,2.39-3.18,2.47Z"/>
          <path class="cls-6" d="M334.15,230.9c18.22.81,21.27-6.02,19.83-12.56-1.7-7.74-8.67-13.25-16.59-13.11-6.71.11-12.71,4.68-7.69,22.22.67,2.35,2.01,3.34,4.45,3.45Z"/>
          <path class="cls-5" d="M332.34,230.92c13.02.58,15.2-4.3,14.17-8.98-1.21-5.53-6.2-9.47-11.86-9.37-4.79.08-9.08,3.35-5.49,15.88.48,1.68,1.44,2.39,3.18,2.47Z"/>
          <path class="cls-6" d="M226.18,127.16c-18.22.81-21.27-6.02-19.83-12.56,1.7-7.74,8.67-13.25,16.59-13.11,6.71.11,12.71,4.68,7.69,22.22-.67,2.35-2.01,3.34-4.45,3.45Z"/>
          <path class="cls-5" d="M227.98,127.18c-13.02.58-15.2-4.3-14.17-8.98,1.21-5.53,6.2-9.47,11.86-9.37,4.79.08,9.08,3.35,5.49,15.88-.48,1.68-1.44,2.39-3.18,2.47Z"/>
          <path class="cls-6" d="M284,127.16c18.22.81,21.27-6.02,19.83-12.56-1.7-7.74-8.67-13.25-16.59-13.11-6.71.11-12.71,4.68-7.69,22.22.67,2.35,2.01,3.34,4.45,3.45Z"/>
          <path class="cls-5" d="M282.2,127.18c13.02.58,15.2-4.3,14.17-8.98-1.21-5.53-6.2-9.47-11.86-9.37-4.79.08-9.08,3.35-5.49,15.88.48,1.68,1.44,2.39,3.18,2.47Z"/>
          <path class="cls-6" d="M173.93,176.91c18.22.81,21.27-6.02,19.83-12.56-1.7-7.74-8.67-13.25-16.59-13.11-6.71.11-12.71,4.68-7.69,22.22.67,2.35,2.01,3.34,4.45,3.45Z"/>
          <path class="cls-5" d="M172.13,176.93c13.02.58,15.2-4.3,14.17-8.98-1.21-5.53-6.2-9.47-11.86-9.37-4.79.08-9.08,3.35-5.49,15.88.48,1.68,1.44,2.39,3.18,2.47Z"/>
          <path class="cls-6" d="M330.97,176.91c-18.22.81-21.27-6.02-19.83-12.56,1.7-7.74,8.67-13.25,16.59-13.11,6.71.11,12.71,4.68,7.69,22.22-.67,2.35-2.01,3.34-4.45,3.45Z"/>
          <path class="cls-5" d="M332.77,176.93c-13.02.58-15.2-4.3-14.17-8.98,1.21-5.53,6.2-9.47,11.86-9.37,4.79.08,9.08,3.35,5.49,15.88-.48,1.68-1.44,2.39-3.18,2.47Z"/>
        </g>
        <path class="cls-6" d="M253.42,159.43c-14.8-10.65-12.96-17.9-7.78-22.15,6.13-5.02,15.02-5.02,21.15,0,5.2,4.25,7.07,11.55-7.74,22.21-1.98,1.43-3.65,1.37-5.63-.05Z"/>
        <path class="cls-5" d="M254.82,160.56c-10.58-7.61-9.26-12.79-5.56-15.83,4.38-3.59,10.73-3.59,15.11,0,3.71,3.03,5.05,8.25-5.53,15.87-1.42,1.02-2.61.98-4.03-.04Z"/>
      </g>
      <path id="zampa_sx" data-name="zampa sx" class="cls-5" d="M266.8,369.77l-1.73,29.18s14.79-.44,13.32,6.75h-16.81s-.59-36.75-.59-36.75c0-1.19.26-2.37.84-3.35.71-1.21,1.86-2.21,3.48-.51,1.11,1.17,1.63,2.93,1.5,4.68Z"/>
      <path id="zampa_dx" data-name="zampa dx" class="cls-5" d="M244.51,369.77l1.73,29.18s-14.79-.44-13.32,6.75h16.81s.59-36.75.59-36.75c0-1.19-.26-2.37-.84-3.35-.71-1.21-1.86-2.21-3.48-.51-1.11,1.17-1.63,2.93-1.5,4.68Z"/>
      <path id="corpo" class="cls-2" d="M272.43,372.47c47.71-16.99,30.9-52.41,11.79-74.29-14.72-14.14-24.92-42.98-24.92-42.98h-7.59s-10.3,29.12-25.13,43.18c-4.6,4.36-8.54,9.37-11.33,15.06-8.11,16.55-16.07,46.03,30.06,59.87,8.82,2.6,18.43,2,27.12-.85Z"/>
      <path id="coda-3" data-name="coda" class="cls-6" d="M248.54,294.98c-39.34,28.3-34.44,47.58-20.68,58.86,16.28,13.35,39.91,13.34,56.21.02,13.81-11.28,18.8-30.7-20.56-59.02-5.27-3.79-9.71-3.65-14.97.14Z"/>
      <g id="collo">
        <path id="collo-2" data-name="collo" class="cls-2" d="M239.08,281.97s11.44-55.01,8.69-85.77l18.68,20.2s3.98,55.19,6.48,67.22"/>
        <path class="cls-1" d="M247.96,216.31s7.42,6.2,18.54.67l1.19,15.55s-7.42,12.99-19.73-16.22Z"/>
      </g>
      <g id="dettagli_corpo" data-name="dettagli corpo">
        <path class="cls-5" d="M241.86,302.84s-11.8,38.68-3.77,54.5c0,0-26.37-18.08,3.77-54.5Z"/>
        <path class="cls-5" d="M257.18,360.42s-12.31-18.65,0-57.58c0,0,12.56,27.94,0,57.58Z"/>
        <path class="cls-5" d="M270.59,302.84s11.8,38.68,3.77,54.5c0,0,26.37-18.08-3.77-54.5Z"/>
      </g>
      <g id="piume_testa" data-name="piume testa">
        <path class="cls-6" d="M245.86,197.49s-19.31.88-21.22-10.36c-.1-.6-.9-.77-1.23-.26-2.87,4.34-8.51,16.4,22.45,10.62Z"/>
        <path class="cls-6" d="M245.84,201.39c-.51.09-3,.52-6.09,1.36-5.95,1.63-11.27,5.07-15.22,9.81-2.98,3.58-8.39,7.44-14.5-.59-.41-.54-1.27-.17-1.14.49,1.08,5.55,4.74,16.81,15.94,8.54,2.04-1.5,3.56-3.57,4.68-5.84,1.35-2.76,5.23-7.7,16.34-13.74.02,0,.01-.04,0-.03Z"/>
        <path class="cls-6" d="M247.04,194.15s-16.07-9.98-11.82-20.29c.27-.67-.38-1.33-1.04-1.04-4.93,2.16-15.58,9.23,12.87,21.33Z"/>
        <path class="cls-6" d="M249.07,191.55c-.32-1.7-2.52-14.87,4.16-19.28.58-.39.45-1.27-.23-1.41-4.31-.9-15.83.29-3.99,20.71.02.03.07.02.06-.01Z"/>
      </g>
      <g id="becco">
        <path class="cls-5" d="M271.28,201.76l10.72,4.05c.7.27.65,1.28-.08,1.47l-11.61,2.99.97-8.51Z"/>
      </g>
      <circle id="testa" class="cls-2" cx="257.68" cy="203.85" r="15.81"/>
      <ellipse id="occhio" class="cls-5" cx="259.69" cy="200.01" rx="1.48" ry="3.82"/>
    </g>
  </g>
</svg>