<?xml version="1.0" encoding="UTF-8"?>
<svg xmlns="http://www.w3.org/2000/svg" viewBox="0 0 512 512">
  <defs>
    <style>
      .cls-1 {
        fill: #c8dfee;
      }

      .cls-2 {
        fill: #c7a315;
      }

      .cls-3, .cls-4 {
        fill: beige;
      }

      .cls-5 {
        isolation: isolate;
      }

      .cls-4 {
        mix-blend-mode: multiply;
      }

      .cls-6 {
        fill: #42210b;
      }
    </style>
  </defs>
  <g class="cls-5">
    <g id="candela">
      <rect id="corpo" class="cls-3" x="237.98" y="207.83" width="33.61" height="177.03"/>
      <path id="fiammella" class="cls-2" d="M254.79,191.02c-2.2-.95-42.36-17.47-6.73-63.99,2.49-3.25,1.69-8.01-1.1-11-2.03-2.18-4.91-4.54-8.85-6.38,0,0,7.41-1.46,17.75,7.05,3.36,2.77,4.29,16.12,2.59,20.14-3.5,8.27-5.35,13.98,5.24,21.35,15.21,10.58-8.89,32.83-8.89,32.83Z"/>
      <path id="cerino" class="cls-6" d="M249.19,165.64s5.27,29.81,5.06,42.19c0,0,2.97-22.46-5.06-42.19Z"/>
      <g id="piattino">
        <path class="cls-1" d="M164.18,362.42h201.82s-35.81,40.62-109.77,40.02c-73.96-.6-92.05-40.02-92.05-40.02Z"/>
        <path class="cls-1" d="M313.22,362.42s8.66-41.43,40.65-34.55c14.95,3.22,26.56,15.32,29.27,30.38,1.1,6.14,1.28,13.56-.41,22.29-5.32,27.49-49.38,3.6-48.02,4.32l7.7-4.24c-2.05-1,33.61,19.42,34.92-5.69,1.5-28.71-15.11-36.7-15.11-36.7,0,0-28.71-20.04-41.45,24.19h-7.56Z"/>
      </g>
      <g id="cera_sciolta" data-name="cera sciolta">
        <path class="cls-4" d="M233.88,220.65s8.56-15.01,13.41-7.3c0,0,3.72,30.38,5.59,33.77,1.33,2.41,2.97,3.06,4.78,1.33.99-.95,1.53-2.28,1.61-3.66.22-3.94.89-14.56,7.99-17.9l4.32-2.41v8.91c0,5.31-1.18,10.59-3.66,15.29-2.12,4.01-4.66,5.65-9.21,7.31,0,0-13.92,3.57-14.57-16.6-.65-20.17-10.27-18.75-10.27-18.75Z"/>
        <path id="cera_sciolta-2" data-name="cera sciolta" class="cls-3" d="M231.46,221.94c-8.1-11.28-14.35-35.31-5.36-42.6,3.08-2.49,7.71-1.23,9.38,2.36,3.38,7.27,12.63,20.82,34.44,20.47,2.09-.03,4.19.42,6.05,1.38,4.12,2.14,8.42,7.29-.69,19.15-1.64,2.14-3.97,3.65-6.59,4.29-2.97.72-8.8,5.39-8.99,19.29-.05,3.74-4.99,5.02-6.9,1.81-2.59-4.37-3.63-14.69-5.1-33.22-.28-3.46-3.56-3.86-5.59-1.03-.03.04-4.14,8.18-4.16,8.21-2.59,3.91-3.42,4.14-6.48-.12Z"/>
      </g>
    </g>
  </g>
</svg>