<?xml version="1.0" encoding="UTF-8"?>
<svg xmlns="http://www.w3.org/2000/svg" viewBox="0 0 512 512">
  <defs>
    <style>
      .cls-1 {
        fill: #78872c;
      }

      .cls-2 {
        opacity: .35;
      }

      .cls-2, .cls-3 {
        fill: #404e0a;
      }

      .cls-2, .cls-4 {
        mix-blend-mode: multiply;
      }

      .cls-5 {
        isolation: isolate;
      }

      .cls-6, .cls-4 {
        fill: #adb781;
      }
    </style>
  </defs>
  <g class="cls-5">
    <g id="tartaruga">
      <g id="zampa_posteriore_dx" data-name="zampa posteriore dx">
        <path id="zampa_posteriore_dx-2" data-name="zampa posteriore dx" class="cls-6" d="M311.31,266.56s-37.01-11.77-47.9,8.39c-4.97,9.2-5.08,34.64-2.43,51.22.49,3.09-1.36,5.71-4.04,7.34-6.27,3.81-15,6.89,28.91,6.45,7.12-.07,13.47-4.5,15.98-11.16,3.67-9.74,5.63-24.88-6.4-41.08"/>
        <path id="ombra_zampa_dx" data-name="ombra zampa dx" class="cls-4" d="M263.36,337.86s25.69-.59,32.81-1.45c0,0-4.93,5.03-18.72,3.59,0,0-14.27-.95-14.09-2.14Z"/>
      </g>
      <g id="zampa_dx" data-name="zampa dx">
        <path id="zampa_anteriore_dx" data-name="zampa anteriore dx" class="cls-6" d="M182.92,287.12s-19.72-33.46-41.28-25.7c-9.84,3.54-26.89,22.42-35.97,36.54-1.69,2.63-4.83,3.35-7.9,2.78-7.21-1.34-15.78-4.87,17.24,24.09.28.24.56.48.85.7,7.16,5.51,17.6,2.65,21.51-5.5,5.93-12.37,20.28-34.69,40.1-15.32"/>
        <path id="ombre_zampa_dx" data-name="ombre zampa dx" class="cls-4" d="M169.55,260.25s2.74,30.05,16.44,44.48c0,0-20.39-9.56-26.41-7.45-9.39,3.3-15.77-6.75-16.72-16.66-2.44-25.31,20.13-25.95,26.69-20.37Z"/>
      </g>
      <g id="corpo">
        <path id="corpo-2" data-name="corpo" class="cls-6" d="M159.39,256.44c-15.08,37.82,142.97,153.18,243.96,12.88,8.97-12.46,16.38-25.23,17.53-37.68.08-.9-.87-1.53-1.67-1.1-9.93,5.41-57.64,30-70.58,10.6-14.46-21.69-168.58-9.91-189.25,15.3Z"/>
        <path class="cls-4" d="M242.91,299.12s-31.02,6.18-9.08,29.21c0,0,.29-17.53,9.08-29.21Z"/>
        <path class="cls-4" d="M355.04,294.48s-8.56,13.85-8.93,26.91c0,0-18.05-8.1,8.93-26.91Z"/>
        <path class="cls-4" d="M389.04,287.12s-7.44-26.5-39.74-15.8c0,0,5.3-8.45,10.43-23.22,0,0,33.05,11.65,29.31,39.02Z"/>
      </g>
      <path id="zampa_posteriore_sx" data-name="zampa posteriore sx" class="cls-6" d="M339.16,273.33s37.01-11.77,47.9,8.39c4.97,9.2,5.08,34.64,2.43,51.22-.49,3.09,1.36,5.71,4.04,7.34,6.27,3.81,15,6.89-28.91,6.45-7.12-.07-13.47-4.5-15.98-11.16-3.67-9.74-4.4-24.09,6.4-41.08"/>
      <g id="guscio">
        <path id="guscio-2" data-name="guscio" class="cls-3" d="M162.2,275.54c2.05-10.74,11.65-29.77,56.1-2.43,12.81,7.88,26.77,13.78,41.45,17.05,33.3,7.41,85.7,10.14,103.41-38.88.96-2.66,1.09-5.6.15-8.27-1.38-3.89-5.03-7.53-14.67-1.88,0,0-1.31-72.93-68.82-80.1-67.51-7.17-75.87,77.07-75.87,77.07,0,0-68.67-3.67-45.6,38.05.94,1.7,3.48,1.3,3.85-.61Z"/>
        <path id="dettaglio_guscio" data-name="dettaglio guscio" class="cls-3" d="M348.64,241.13c-12.3,27.58-43.09,33.45-66.21,33.64-14.53.12-28.3-6.19-38.13-16.9-17.17-18.72-40.35-19.77-40.35-19.77"/>
        <g id="macchie_guscio" data-name="macchie guscio">
          <ellipse class="cls-1" cx="234.42" cy="205.3" rx="27.3" ry="18.43" transform="translate(-49.16 334.47) rotate(-65.7)"/>
          <ellipse class="cls-1" cx="275.94" cy="212.83" rx="18.43" ry="27.3"/>
          <ellipse class="cls-1" cx="317.4" cy="205.3" rx="18.43" ry="27.3" transform="translate(-55.96 146.18) rotate(-23.9)"/>
        </g>
        <path id="ombre_guscio" data-name="ombre guscio" class="cls-2" d="M203.95,238.1s22.26-1.53,38.54,17.9,44.1,18.77,44.1,18.77c0,0,50.16-.17,62.05-33.64,0,0-30.58,29.97-62.05,22.01-20.78-5.25-31.33-19.13-36.1-27.96-4.4-8.15-12.11-14.14-21.21-15.88s-20.33.83-25.34,18.79Z"/>
      </g>
      <path id="zampa_anteriore_sx" data-name="zampa anteriore sx" class="cls-6" d="M227.03,277.97s37.01-11.77,47.9,8.39c4.97,9.2,5.08,34.64,2.43,51.22-.49,3.09,1.36,5.71,4.04,7.34,6.27,3.81,15,6.89-28.91,6.45-7.12-.07-13.47-4.5-15.98-11.16-3.67-9.74-5.63-24.88,6.4-41.08"/>
      <path id="collo" class="cls-6" d="M227.03,277.97c-13.53-7.74-43.79-29.9-40.17-71.71.47-5.45.25-10.95-.94-16.28-3.23-14.41-14.18-33.47-51.04-15.12-8.93,4.44-15.69,11.92-20.92,20.42-6.61,10.76-15.05,29-.33,43.24,1.62,1.57,4.21,1.58,5.83,0,5.76-5.62,19.79-15.91,27.48,7.53,1.46,4.44,2.49,9.01,3.21,13.63,1.96,12.56,12.03,54.59,59.22,57.69"/>
      <g id="bocca">
        <path class="cls-3" d="M119.1,238.84c2.26-2.31,4.79-4.39,7.38-6.32,5.18-3.85,10.92-7.2,17.23-8.75,1.41-.35.81-2.52-.6-2.17-6.49,1.6-12.44,5.02-17.77,8.98-2.74,2.04-5.44,4.22-7.83,6.67-1.01,1.04.58,2.63,1.59,1.59h0Z"/>
      </g>
      <ellipse id="occhio" class="cls-3" cx="153.61" cy="200.26" rx="4.13" ry="8.18"/>
    </g>
  </g>
</svg>