<?xml version="1.0" encoding="UTF-8"?>
<svg xmlns="http://www.w3.org/2000/svg" viewBox="0 0 512 512">
  <defs>
    <style>
      .cls-1, .cls-2 {
        fill: #c8dfee;
      }

      .cls-2 {
        mix-blend-mode: multiply;
        opacity: .61;
      }

      .cls-3 {
        isolation: isolate;
      }

      .cls-4 {
        fill: #1a1a1a;
      }

      .cls-5 {
        fill: #7a6fb9;
      }

      .cls-6 {
        fill: #8fc1c9;
      }
    </style>
  </defs>
  <g class="cls-3">
    <g id="piccione_2" data-name="piccione 2">
      <g id="zampa_dx" data-name="zampa dx">
        <path class="cls-4" d="M178.28,352.93l3.02,43.73s-25.86-.66-23.3,10.12h29.4l1.03-55.07c0-1.78-.46-3.55-1.46-5.01-1.24-1.81-3.26-3.31-6.08-.77-1.95,1.75-2.85,4.4-2.61,7.01Z"/>
      </g>
      <path id="corpo" class="cls-1" d="M113.12,254.23s-54.78,92.16,72.42,111.07l200.48,5.32s46.25-.18-38.07-17.85l43.39,2.73s97.54,11.85-61.56-30.35c0,0-1.61-90.53-133.26-84.12,0,0-54.04-52.54-83.39,13.21Z"/>
      <g id="zampa_sx" data-name="zampa sx">
        <path class="cls-4" d="M228.43,352.93l3.02,43.73s-25.86-.66-23.3,10.12h29.4l1.03-55.07c0-1.78-.46-3.55-1.46-5.01-1.24-1.81-3.26-3.31-6.08-.77-1.95,1.75-2.85,4.4-2.61,7.01Z"/>
      </g>
      <g id="testa">
        <g id="testa-2" data-name="testa">
          <path id="testa-3" data-name="testa" class="cls-1" d="M104.78,274.47l4.67-131.19c.33-9.36,3.37-18.49,9.11-25.9,9.39-12.12,25.78-21.35,46.48,15.58,33.12,59.09,35.59,108.64,35.59,108.64,0,0-32.03,82.51-95.85,32.86Z"/>
          <path id="testa_2" data-name="testa 2" class="cls-6" d="M109.43,143.35c.36-9.63,3.35-19.05,9.01-26.85,9.29-12.8,25.61-22.55,46.61,16.46,21.04,39.09,25.5,57.49,27.35,65.57.82,3.58.91,6.8,1.08,10.33.6,12.54-7.08,41.08-33.31,2.58,0,0-7.12,50.26-32.77,0,0,0-11.44,45.73-18.92,9.24-1.11-5.4-1.55-10.93-1.34-16.44l2.3-60.88Z"/>
        </g>
        <path id="becco-2" data-name="becco" class="cls-4" d="M113.12,146.74v12.21s-8.72-4.84-18.4.35c-9.67,5.19,1.08-12.99,18.4-12.56Z"/>
        <ellipse id="occhio" class="cls-4" cx="139.02" cy="139.72" rx="3.38" ry="9.01"/>
      </g>
      <path id="ombre_ala" data-name="ombre ala" class="cls-2" d="M150.29,303.58c.93,6.79,148.03,54.26,105.71,9.01l-7.51-11.22c-.27,2.67,90.15,22.95,58.88-8.94-26.87-27.4-157.08,11.15-157.08,11.15Z"/>
      <g id="ala">
        <path id="ala-2" data-name="ala" class="cls-6" d="M147.25,268.56c23.27-23.64,56.44-34.8,89.38-30.9,25.57,3.02,63.96,14.97,72.18,46.39,0,0,9.91,27.86-56.57,19.21,0,0,44.53,30.88-64.85,15.42-55.33-7.82-58.65-31.31-40.14-50.12Z"/>
        <path id="piume_ala" data-name="piume ala" class="cls-5" d="M152.74,309.5s97.01,6.25,67.98-17.79c0,0,57.47-8.17,72.56-20.95,8.88-7.53,4.48-8.01-7.03-9.6-10.52-1.46-30.35-3.66-44.11,9.02,0,0-40.36,3.27-21.31,12.03,0,0-40.14.82-29.25,12.16,0,0-48.59,11.96-38.83,15.13Z"/>
      </g>
    </g>
  </g>
</svg>