<?xml version="1.0" encoding="UTF-8"?>
<svg xmlns="http://www.w3.org/2000/svg" viewBox="0 0 512 512">
  <defs>
    <style>
      .cls-1 {
        fill: #c69c6d;
      }

      .cls-2, .cls-3 {
        fill: beige;
      }

      .cls-4 {
        isolation: isolate;
      }

      .cls-3 {
        mix-blend-mode: multiply;
      }

      .cls-5 {
        fill: #42210b;
      }
    </style>
  </defs>
  <g class="cls-4">
    <g id="ampolla">
      <g>
        <path class="cls-2" d="M213.36,136.96s14.51,65.95-9.5,92.86c-2.8,3.14-9.46,9.53-24.2,18.88-29.37,18.64-81.59,76.27,9.84,126.23,47.38,25.89,100.78,23.15,148-7.56,28.39-18.46,69.11-62.45-10.63-120.01-7.63-5.51-18.31-13.4-23.73-18.08-6.3-5.45-16.85-15.01-5.53-93.19"/>
        <ellipse class="cls-2" cx="254.07" cy="129.5" rx="57.72" ry="10.06"/>
        <g id="logo_classesnse" data-name="logo classesnse">
          <path class="cls-5" d="M269.9,288.48c-7.4-.96-17.63-2.36-24.47,1.32-9.6,5.16-3.42,18.18,6.33,17.04,4.41-.51,14.57-3.7,17.61,1.03,2.31,3.59-2.19,4.72-4.8,5.07-6.17.83-12.89-.19-18.93-1.52-3.76-.82-5.37,4.96-1.6,5.79,7.92,1.74,37.44,5.88,31.25-10.76-1.78-4.78-6.59-6.49-11.31-6.78-3.84-.24-15.81,3.43-17.21-.94-2.36-7.36,19.2-4.77,23.12-4.26s3.78-5.51,0-6h0Z"/>
          <path class="cls-5" d="M234.14,251.23c1.19,3.38,3.27,7.01,6.48,8.8,2.18,1.22,4.64,1.37,6.97.49,1.47-.55,2.8-1.51,3.95-2.57s2.54-4.07,3.82-4.73h-3.03c-.94-.64.14.69.43,1.18.48.8,1.05,1.59,1.66,2.3,1.31,1.53,2.94,2.89,4.93,3.43s4.1.18,5.9-.84c1.16-.66,2.16-1.59,3.05-2.57s2.09-3.98,3.09-4.44l-3.64-.47c-1.02-1.23-.11-1.24-.5.13-.16.55-.2,1.14-.37,1.7-.51,1.61-1.41,2.99-2.73,4.06-5.63,4.58-15.17,3-21.61,1.85-3.78-.67-5.4,5.11-1.6,5.79,8.81,1.57,20.75,3.1,27.91-3.8,3.21-3.1,6.44-10.01,3.15-13.97-.9-1.08-2.5-1-3.64-.47-2.94,1.37-4.41,9.22-8.49,6.62-2.12-1.35-2.42-4.27-4.51-5.68-.91-.62-2.11-.47-3.03,0-3.04,1.55-5.22,9.38-9.49,6.24-1.37-1-2.36-3.07-2.92-4.65-1.28-3.62-7.08-2.06-5.79,1.6h0Z"/>
          <path class="cls-5" d="M288.3,341.92h-36.8l3,3v-81.3c0-3.86-6-3.87-6,0v81.3c0,1.62,1.37,3,3,3h36.8c3.86,0,3.87-6,0-6h0Z"/>
          <path class="cls-5" d="M272.26,271.89c-16.03-.05-36.86,4.24-46.42,18.33-6.09,8.98-6.22,21.93.62,30.52,6.45,8.11,17.26,11.6,27.1,13.29,7.43,1.28,15.16,1.88,22.71,1.41,3.84-.24,3.86-6.24,0-6-13.28.82-29.79-.45-40.87-8.42-8.24-5.93-10.41-16.98-5.53-25.88,4.68-8.54,14.6-12.61,23.58-14.84,6.11-1.52,12.51-2.43,18.82-2.41,3.86.01,3.87-5.99,0-6h0Z"/>
        </g>
      </g>
      <g id="macchie">
        <circle class="cls-1" cx="187.51" cy="267.21" r="5.29"/>
        <circle class="cls-1" cx="172.25" cy="287.34" r="9.97"/>
        <circle class="cls-1" cx="203.73" cy="298.1" r="7.38"/>
        <circle class="cls-1" cx="303.26" cy="322.05" r="5.9"/>
        <circle class="cls-1" cx="342.92" cy="303.44" r="11.7"/>
        <circle class="cls-1" cx="323.4" cy="287.34" r="5.59"/>
        <circle class="cls-1" cx="284" cy="175.26" r="7.73"/>
        <circle class="cls-1" cx="275" cy="187.67" r="4.68"/>
        <circle class="cls-1" cx="229.21" cy="153.49" r="8.34"/>
        <circle class="cls-1" cx="236.64" cy="232.93" r="3.97"/>
        <circle class="cls-1" cx="222.09" cy="371.76" r="6.1"/>
      </g>
      <g id="ombre">
        <path class="cls-3" d="M213.36,136.96s39.8,5.16,84.25-.86l-3.76,31.43s-64.25,3.03-80.49-30.57Z"/>
      </g>
    </g>
  </g>
</svg>