<svg width="51" height="50" viewBox="0 0 51 50" fill="none" xmlns="http://www.w3.org/2000/svg">
<path d="M36.4615 7.3911V5.81557C36.4615 5.56843 36.5462 5.3599 36.7154 5.18999C36.9 5.00463 37.1154 4.91196 37.3615 4.91196C37.6077 4.91196 37.8154 5.00463 37.9846 5.18999C38.1692 5.3599 38.2615 5.56843 38.2615 5.81557V7.3911C38.2615 7.65369 38.1692 7.86994 37.9846 8.03985C37.8154 8.20976 37.6077 8.29472 37.3615 8.29472C37.1154 8.29472 36.9 8.20976 36.7154 8.03985C36.5462 7.85449 36.4615 7.63825 36.4615 7.3911ZM26.6077 0H43.2C44.4154 0 45.5231 0.301205 46.5231 0.903614C47.5385 1.49058 48.3462 2.29379 48.9462 3.31325C49.5462 4.31727 49.8462 5.43713 49.8462 6.67285V26.7377C49.8462 28.6222 49.4846 30.3908 48.7615 32.0436C48.0385 33.6809 47.0385 35.1174 45.7615 36.3531C44.4846 37.5734 43.0154 38.5079 41.3538 39.1566C42.7385 39.6046 44.0385 40.1606 45.2538 40.8248C45.9923 41.2264 46.6923 41.6744 47.3538 42.1687C48.0308 42.663 48.6308 43.1959 49.1538 43.7674C49.6769 44.3543 50.1154 45.0108 50.4692 45.7368C50.8231 46.4628 51 47.2428 51 48.0769V48.3318C51 48.7952 50.8385 49.1891 50.5154 49.5134C50.1923 49.8378 49.8 50 49.3385 50H24.5538C21.2769 50 18.1615 49.3821 15.2077 48.1464C12.2692 46.9107 9.65385 45.1962 7.36154 43.0028C5.08462 40.8094 3.28462 38.2685 1.96154 35.38C0.653846 32.4761 0 29.3636 0 26.0426V25.4402C0 23.0306 0.446154 20.7754 1.33846 18.6747C2.24615 16.574 3.49231 14.7281 5.07692 13.1372C6.66154 11.5307 8.5 10.2796 10.5923 9.38369C12.7 8.47235 14.9538 8.01668 17.3538 8.01668C19.3385 8.01668 21.2692 8.34878 23.1462 9.01297C23.1923 8.50324 23.4769 8.24838 24 8.24838H25.3385C24.5846 7.69231 23.9154 7.03584 23.3308 6.27896C23.1923 6.09361 23.1308 5.88508 23.1462 5.65338C23.1769 5.42169 23.2769 5.23633 23.4462 5.09731C23.6308 4.94285 23.8385 4.88106 24.0692 4.91196C24.3 4.94285 24.4846 5.05097 24.6231 5.23633C24.6385 5.25178 24.6692 5.28267 24.7154 5.32901C24.7308 5.3599 24.7538 5.39079 24.7846 5.42169C24.9692 5.63794 25.1538 5.83874 25.3385 6.0241C25.0769 5.1591 24.9462 4.27093 24.9462 3.35959V1.66821C24.9462 1.20482 25.1077 0.810936 25.4308 0.486562C25.7538 0.162187 26.1462 0 26.6077 0ZM25.2462 9.91659C27.1077 10.8897 28.7462 12.1563 30.1615 13.7164C31.5923 15.2765 32.7077 17.0605 33.5077 19.0686C34.3077 21.0612 34.7077 23.185 34.7077 25.4402V26.8072C34.7077 27.2088 34.8462 27.5564 35.1231 27.8499C35.4 28.1279 35.7385 28.2669 36.1385 28.2669H36.6C37.0462 28.2669 37.4308 28.1047 37.7538 27.7804C38.0923 27.4405 38.2615 27.0466 38.2615 26.5987V13.392H35.6077C34.1308 13.392 32.6923 13.0831 31.2923 12.4652C29.8923 11.8474 28.6846 10.9978 27.6692 9.91659H25.2462ZM23.2846 26.8767V25.7183C23.2846 24.637 23.0231 23.6562 22.5 22.7757C21.9769 21.8953 21.2769 21.1925 20.4 20.6673C19.5231 20.1421 18.5538 19.8795 17.4923 19.8795C16.4154 19.8795 15.4385 20.1421 14.5615 20.6673C13.6846 21.1925 12.9846 21.8953 12.4615 22.7757C11.9385 23.6562 11.6769 24.637 11.6769 25.7183V26.089C11.6769 28.2669 12.2692 30.2827 13.4538 32.1362C14.6385 33.9744 16.2615 35.4495 18.3231 36.5616C20.3846 37.6738 22.7462 38.2298 25.4077 38.2298H29.7462C27.8231 37.0714 26.2615 35.4958 25.0615 33.5032C23.8769 31.4952 23.2846 29.2864 23.2846 26.8767ZM28.2692 3.35959C28.2692 4.53352 28.6077 5.63021 29.2846 6.64968C29.9769 7.66914 30.8769 8.4878 31.9846 9.10565C33.1077 9.72351 34.3154 10.0324 35.6077 10.0324H39.9231C40.3846 10.0324 40.7769 10.2023 41.1 10.5422C41.4231 10.8665 41.5846 11.2527 41.5846 11.7006V26.5987C41.5846 27.9734 41.0923 29.1551 40.1077 30.1437C39.1385 31.1168 37.9692 31.6033 36.6 31.6033H36.1385C34.8154 31.6033 33.6846 31.1399 32.7462 30.2132C31.8231 29.2709 31.3615 28.1356 31.3615 26.8072V25.4402C31.3615 23.046 30.8154 20.8449 29.7231 18.8369C28.6462 16.8134 27.1769 15.1529 25.3154 13.8554C23.4538 12.5425 21.3615 11.747 19.0385 11.469V11.5848C19.0385 12.0482 18.8769 12.4421 18.5538 12.7665C18.2308 13.0908 17.8385 13.253 17.3769 13.253C16.9154 13.253 16.5231 13.0908 16.2 12.7665C15.8769 12.4421 15.7154 12.0482 15.7154 11.5848V11.4458C14.3462 11.6157 13.0308 11.971 11.7692 12.5116L11.8154 12.6274C12.0462 13.029 12.1 13.4538 11.9769 13.9018C11.8692 14.3497 11.6154 14.6895 11.2154 14.9212C10.8154 15.1529 10.3923 15.2147 9.94615 15.1066C9.5 14.983 9.16154 14.7204 8.93077 14.3188L8.88462 14.2261C7.77692 15.0602 6.82308 16.0334 6.02308 17.1455L6.06923 17.1687C6.46923 17.4004 6.73077 17.7402 6.85385 18.1881C6.97692 18.6361 6.92308 19.0531 6.69231 19.4393C6.46154 19.8409 6.12308 20.1035 5.67692 20.2271C5.23077 20.3506 4.80769 20.2966 4.40769 20.0649L4.38462 20.0417C3.86154 21.3083 3.53077 22.6213 3.39231 23.9805C3.83846 23.996 4.22308 24.1659 4.54615 24.4903C4.86923 24.8146 5.03077 25.2008 5.03077 25.6487C5.03077 26.1121 4.86923 26.506 4.54615 26.8304C4.22308 27.1548 3.83077 27.317 3.36923 27.317C3.53846 30.0046 4.21538 32.5224 5.4 34.8702C6.6 37.2027 8.16923 39.257 10.1077 41.0334C12.0615 42.7943 14.2692 44.169 16.7308 45.1576C19.2077 46.1616 21.8154 46.6636 24.5538 46.6636H47.1923C47.0538 46.4473 46.8846 46.2311 46.6846 46.0148C45.9769 45.2116 44.9692 44.4625 43.6615 43.7674C42.4 43.0723 41.0769 42.5317 39.6923 42.1455C38.3231 41.7593 37.1538 41.5663 36.1846 41.5663H25.4077C23.0385 41.5663 20.8231 41.1724 18.7615 40.3846C16.7 39.5968 14.8846 38.5002 13.3154 37.0945C11.7615 35.6889 10.5462 34.0516 9.66923 32.1826C8.79231 30.2981 8.35385 28.2669 8.35385 26.089V25.7183C8.35385 24.0192 8.76154 22.4822 9.57692 21.1075C10.4077 19.7173 11.5077 18.6129 12.8769 17.7943C14.2615 16.9601 15.8 16.5431 17.4923 16.5431C19.1692 16.5431 20.6923 16.9601 22.0615 17.7943C23.4462 18.6129 24.5462 19.7173 25.3615 21.1075C26.1923 22.4822 26.6077 24.0192 26.6077 25.7183V26.8767C26.6077 28.684 27.0538 30.3367 27.9462 31.835C28.8385 33.3179 30.0308 34.5073 31.5231 35.4032C33.0308 36.299 34.6923 36.747 36.5077 36.747C38.1231 36.747 39.6154 36.3917 40.9846 35.6812C42.3692 34.9707 43.5308 34.013 44.4692 32.8082C45.4077 31.5879 46.0308 30.2132 46.3385 28.684C45.8923 28.6685 45.5154 28.4986 45.2077 28.1742C44.9 27.8499 44.7462 27.4637 44.7462 27.0158C44.7462 26.5678 44.9077 26.1816 45.2308 25.8573C45.5692 25.5175 45.9692 25.3475 46.4308 25.3475H46.5231V21.6172H46.4308C45.9692 21.6172 45.5692 21.4551 45.2308 21.1307C44.9077 20.8063 44.7462 20.4124 44.7462 19.949C44.7462 19.4856 44.9077 19.0918 45.2308 18.7674C45.5692 18.443 45.9692 18.2808 46.4308 18.2808H46.5231V14.9444H46.4308C45.9692 14.9444 45.5692 14.7822 45.2308 14.4578C44.9077 14.118 44.7462 13.7164 44.7462 13.253C44.7462 12.8051 44.9077 12.4189 45.2308 12.0945C45.5692 11.7547 45.9692 11.5848 46.4308 11.5848H46.5231V6.67285C46.5231 5.74606 46.1923 4.95829 45.5308 4.30955C44.8846 3.6608 44.1077 3.33642 43.2 3.33642H28.2692V3.35959Z" fill="#545F71"/>
</svg>
