<?xml version="1.0" encoding="UTF-8"?>
<svg id="gatto1" xmlns="http://www.w3.org/2000/svg" viewBox="0 0 512 512">
  <defs>
    <style>
      .cls-1 {
        fill: #fff;
      }

      .cls-2 {
        fill: none;
      }

      .cls-3 {
        fill: #f2f2f2;
      }

      .cls-4 {
        fill: #1a1a1a;
      }
    </style>
  </defs>
  <g id="orecchio_sx" data-name="orecchio sx">
    <path id="orecchio_sx-2" data-name="orecchio sx" class="cls-4" d="M148.27,223.41s-34.83-180.7,70.21-35"/>
    <g id="rientranza_orecchio_sx" data-name="rientranza orecchio sx">
      <path class="cls-4" d="M157,149.76s29.25,3.61,48.04,42.42"/>
      <path class="cls-3" d="M157,150.88c-.62-.08.32.06.53.1.75.14,1.49.32,2.22.51,2.67.7,5.27,1.66,7.78,2.81,8.94,4.08,16.74,10.36,23.16,17.77,5.4,6.23,9.78,13.28,13.38,20.68.63,1.3,2.57.16,1.94-1.14-5.89-12.11-14-23.28-24.71-31.56-6.02-4.65-12.86-8.45-20.2-10.53-1.34-.38-2.71-.72-4.1-.89s-1.42,2.07,0,2.25h0Z"/>
    </g>
  </g>
  <g id="orecchio_dx" data-name="orecchio dx">
    <path id="orecchio_dx-2" data-name="orecchio dx" class="cls-4" d="M364.56,223.41s34.19-180.83-70.85-35.13"/>
    <g id="rientranza_orecchio_dx" data-name="rientranza orecchio dx">
      <path class="cls-4" d="M355.81,149.76s-29.25,3.61-48.04,42.42"/>
      <path class="cls-3" d="M355.81,148.63c-3.97.5-7.88,2.01-11.49,3.65-9.22,4.17-17.31,10.69-23.9,18.33-5.47,6.35-9.96,13.48-13.62,21.01-.63,1.3,1.31,2.44,1.94,1.14,5.76-11.85,13.64-22.82,24.13-30.92,5.77-4.45,12.34-8.1,19.38-10.11.92-.26,1.85-.5,2.79-.69.26-.05.52-.09.77-.14s.33-.04,0,0c1.42-.18,1.44-2.43,0-2.25h0Z"/>
    </g>
  </g>
  <ellipse id="testa" class="cls-3" cx="256.3" cy="282.71" rx="135.46" ry="97.77"/>
  <path class="cls-4" d="M293.7,188.27s-13.07-2.35-13.82-1.47c-37.79,44.48-25.5,107.66,39.17,113.43,11.79,1.05,54.92.67,70.6-.25,0,0,24.18-84.26-95.95-111.7Z"/>
  <path class="cls-4" d="M218.79,188.27s13.11-2.38,13.82-1.47c36.07,46.39,23.45,108.33-41.73,111.63-11.83.6-52.36,2.47-68.04,1.54,0,0-24.18-84.26,95.95-111.7Z"/>
  <g id="baffi">
    <g id="baffo_sx_3" data-name="baffo sx 3">
      <path d="M231.05,313.18c-3.24-.89-6.49-1.73-9.74-2.55-8.03-2.04-16.09-3.96-24.18-5.76-10.39-2.31-20.83-4.43-31.33-6.21-10.38-1.76-20.85-3.26-31.36-3.93-7.88-.51-16.23-.82-23.95,1.15-.71.18-1.42.39-2.12.63-1.36.47-.78,2.64.6,2.17,7.02-2.42,14.97-2.21,22.29-1.88,10.25.46,20.46,1.82,30.58,3.46,10.57,1.71,21.07,3.79,31.53,6.07,8.44,1.84,16.85,3.82,25.22,5.93,2.65.67,5.3,1.35,7.95,2.04,1.25.33,2.5.75,3.76,1.01.06.01.11.03.17.05,1.4.38,1.99-1.79.6-2.17h0Z"/>
    </g>
    <g id="baffo_sx_2" data-name="baffo sx 2">
      <path d="M230.75,321.33c-3.41-.15-6.81-.24-10.22-.33-8.42-.21-16.85-.31-25.27-.29-10.75.03-21.49.24-32.23.77-10.41.52-20.84,1.31-31.15,2.87-7.41,1.12-15.34,2.45-22.05,5.98-.59.31-1.17.65-1.73,1.01-1.21.79-.08,2.74,1.14,1.94,2.54-1.65,5.42-2.71,8.31-3.58,3.91-1.18,7.93-2.01,11.96-2.7,9.99-1.7,20.12-2.52,30.23-3.09,10.73-.61,21.48-.87,32.22-.94,8.75-.05,17.5.02,26.25.22,2.82.06,5.63.14,8.44.23,1.3.04,2.64.19,3.94.14.06,0,.12,0,.18,0,1.45.06,1.44-2.19,0-2.25h0Z"/>
    </g>
    <g id="baffo_sx_1" data-name="baffo sx 1">
      <path d="M230.75,325.96c-3.22.3-6.43.66-9.64,1.02-7.93.9-15.85,1.91-23.76,3.03-10.05,1.43-20.08,3.05-30.05,4.99-9.54,1.86-19.07,3.97-28.36,6.86-6.61,2.06-13.77,4.42-19.25,8.82-.47.38-.92.77-1.34,1.19-1.03,1.02.56,2.61,1.59,1.59,1.93-1.92,4.36-3.3,6.8-4.52,3.35-1.67,6.88-2.98,10.43-4.16,8.99-2.98,18.25-5.11,27.53-6.99,9.86-2,19.8-3.65,29.75-5.12,8.15-1.2,16.33-2.26,24.52-3.21,3.87-.45,7.77-.72,11.63-1.25.05,0,.11-.01.16-.02,1.43-.13,1.44-2.39,0-2.25h0Z"/>
    </g>
    <g id="baffo_dx_3" data-name="baffo dx 3">
      <path d="M281.55,315.35c3.19-.88,6.39-1.7,9.59-2.51,7.96-2.02,15.95-3.93,23.96-5.72,10.33-2.31,20.71-4.42,31.14-6.2,10.29-1.76,20.66-3.25,31.08-3.93,7.75-.51,16-.88,23.6,1.06.71.18,1.42.39,2.12.63,1.37.47,1.96-1.7.6-2.17-7.13-2.46-15.21-2.29-22.64-1.97-10.29.45-20.55,1.81-30.72,3.44-10.63,1.71-21.2,3.79-31.71,6.07-8.55,1.86-17.08,3.86-25.57,5.99-2.71.68-5.42,1.37-8.12,2.08-1.24.33-2.55.58-3.76,1.01-.05.02-.11.03-.17.05-1.39.38-.8,2.55.6,2.17h0Z"/>
    </g>
    <g id="baffo_dx_2" data-name="baffo dx 2">
      <path d="M281.25,323.58c3.38-.14,6.76-.24,10.14-.32,8.32-.21,16.65-.31,24.97-.29,10.64.02,21.28.22,31.91.74s20.67,1.24,30.9,2.77c7.31,1.09,15.24,2.33,21.86,5.8.59.31,1.17.65,1.73,1.01,1.22.79,2.35-1.15,1.14-1.94-5.94-3.87-13.6-5.27-20.47-6.45-10.07-1.74-20.28-2.6-30.48-3.19-10.83-.63-21.68-.9-32.52-.97-8.85-.06-17.7.02-26.55.22-4.12.09-8.36-.03-12.47.38-.06,0-.12,0-.18,0-1.44.06-1.45,2.31,0,2.25h0Z"/>
    </g>
    <g id="baffo_dx_1" data-name="baffo dx 1">
      <path d="M281.25,328.21c3.16.3,6.33.65,9.48,1,7.79.88,15.56,1.87,23.32,2.97,9.87,1.4,19.72,2.99,29.51,4.88,9.5,1.84,18.98,3.92,28.23,6.76,6.43,1.97,13.61,4.22,18.92,8.45.47.37.92.77,1.34,1.19,1.03,1.02,2.62-.57,1.59-1.59-4.64-4.6-11.53-7-17.59-9.04-9.01-3.04-18.32-5.19-27.63-7.09-10.04-2.05-20.15-3.73-30.28-5.22-8.3-1.22-16.61-2.31-24.94-3.27-2.67-.31-5.33-.61-8-.89-1.24-.13-2.55-.39-3.8-.39-.05,0-.11-.01-.16-.02-1.44-.14-1.43,2.12,0,2.25h0Z"/>
    </g>
  </g>
  <path id="occhio_sx" data-name="occhio sx" class="cls-1" d="M360.98,260.7s-39.17-78.33-79.73,11.19c0,0,50.36,41.96,79.73-11.19Z"/>
  <ellipse id="pupilla_sx" data-name="pupilla sx" cx="316.4" cy="263.31" rx="8.63" ry="19.45"/>
  <path id="occhio_dx" data-name="occhio dx" class="cls-1" d="M152.24,260.67s38.57-77.14,78.51,11.02c0,0-49.59,41.32-78.51-11.02Z"/>
  <ellipse id="pupilla_dx" data-name="pupilla dx" cx="196.4" cy="263.31" rx="8.63" ry="19.45"/>
  <path id="ciuffetto" class="cls-2" d="M225.41,192.18s21.2,85.27,20.1,2.76c0-.33.47-.41.55-.08,2.47,10.72,12.15,47.63,18.43-.78.06-.44.66-.5.81-.09,2.06,6.07,9.68,24.21,21.9,4.34"/>
  <path id="naso" d="M238.08,307.82c3.93-2.26,17.53-8.48,36.45.31.29.13.26.56-.05.64-3.6.9-16.35,4.79-18.15,15.27-.06.33-.5.38-.62.07-1.48-3.74-6.7-14.65-17.45-15.5-.41-.03-.54-.57-.18-.78Z"/>
  <g id="bocca">
    <path d="M263.24,339.45c-.34-.01-.82-.18-1.13-.44-.62-.52-.87-.9-1.28-1.61-.96-1.67-1.5-3.57-1.94-5.43-.92-3.87-1.35-7.86-1.59-11.82-.05-.92-.1-1.83-.12-2.75-.04-1.93-2.92-1.93-3,0-.09,2.37-.31,4.74-.6,7.09-.47,3.95-1.08,8.15-2.68,11.82-.31.71-.85,1.71-1.2,2.15-.13.16-.27.31-.41.45-.06.07-.43.37-.24.23-.13.09-.26.18-.4.25-.29.15.08,0-.31.11-1.86.52-1.07,3.42.8,2.89,3.72-1.05,5.1-5.97,5.92-9.24,1.06-4.18,1.58-8.51,1.92-12.8.08-.99.15-1.97.19-2.96h-3c.06,2.81.29,5.63.63,8.42.54,4.44,1.19,9.43,3.56,13.32,1.08,1.78,2.69,3.24,4.87,3.31,1.93.06,1.93-2.94,0-3h0Z"/>
  </g>
</svg>