<svg width="52" height="50" viewBox="0 0 52 50" fill="none" xmlns="http://www.w3.org/2000/svg">
<path d="M42.5736 19.3863C42.0829 19.3863 41.6318 19.2674 41.2202 19.0295C40.8087 18.7758 40.4842 18.4507 40.2467 18.0542C40.0093 17.6419 39.8905 17.19 39.8905 16.6984C39.8905 16.1909 40.0093 15.739 40.2467 15.3425C40.4842 14.9302 40.8087 14.6051 41.2202 14.3673C41.6318 14.1135 42.0829 13.9867 42.5736 13.9867C43.0643 13.9867 43.5076 14.1135 43.9033 14.3673C44.3149 14.6051 44.6394 14.9302 44.8768 15.3425C45.1301 15.739 45.2567 16.1909 45.2567 16.6984C45.2567 17.19 45.1301 17.6419 44.8768 18.0542C44.6394 18.4507 44.3149 18.7758 43.9033 19.0295C43.5076 19.2674 43.0643 19.3863 42.5736 19.3863ZM20.4679 41.4605C19.9772 41.4605 19.5261 41.3336 19.1145 41.0799C18.703 40.8421 18.3785 40.517 18.141 40.1047C17.9036 39.7082 17.7849 39.2642 17.7849 38.7726C17.7849 38.2651 17.9036 37.8132 18.141 37.4167C18.3785 37.0044 18.703 36.6794 19.1145 36.4415C19.5261 36.1878 19.9772 36.0609 20.4679 36.0609C20.9586 36.0609 21.4019 36.1878 21.7976 36.4415C22.2092 36.6794 22.5337 37.0044 22.7711 37.4167C23.0244 37.8132 23.151 38.2651 23.151 38.7726C23.151 39.2642 23.0244 39.7082 22.7711 40.1047C22.5337 40.517 22.2092 40.8421 21.7976 41.0799C21.4019 41.3336 20.9586 41.4605 20.4679 41.4605ZM45.1142 25.9515C45.1142 26.2686 45.0351 26.562 44.8768 26.8316C44.7185 27.0853 44.5127 27.2915 44.2594 27.45C44.0062 27.5928 43.7213 27.6641 43.4047 27.6641C43.1039 27.6641 42.819 27.5928 42.5499 27.45C42.2966 27.2915 42.0908 27.0853 41.9325 26.8316C41.7901 26.562 41.7188 26.2686 41.7188 25.9515C41.7188 25.6502 41.7901 25.3727 41.9325 25.1189C42.0908 24.8493 42.2966 24.6432 42.5499 24.5005C42.819 24.3419 43.1039 24.2626 43.4047 24.2626C43.7213 24.2626 44.0062 24.3419 44.2594 24.5005C44.5127 24.6432 44.7185 24.8493 44.8768 25.1189C45.0351 25.3727 45.1142 25.6502 45.1142 25.9515ZM34.8568 37.9638C33.9229 37.9638 33.0602 37.7339 32.2687 37.274C31.4931 36.8141 30.8757 36.1957 30.4167 35.4186C29.9576 34.6258 29.7281 33.7615 29.7281 32.8259C29.7281 31.8744 29.9576 31.0101 30.4167 30.2331C30.8757 29.4561 31.4931 28.8376 32.2687 28.3777C33.0602 27.902 33.9229 27.6641 34.8568 27.6641C35.8066 27.6641 36.6693 27.902 37.4449 28.3777C38.2206 28.8376 38.8379 29.4561 39.2969 30.2331C39.7718 31.0101 40.0093 31.8744 40.0093 32.8259C40.0093 33.7615 39.7718 34.6258 39.2969 35.4186C38.8379 36.1957 38.2206 36.8141 37.4449 37.274C36.6693 37.7339 35.8066 37.9638 34.8568 37.9638ZM34.287 5.6137C34.0337 4.55122 34.1049 3.59975 34.5007 2.75928C34.8964 1.90295 35.4821 1.22899 36.2577 0.737393C37.0334 0.245798 37.8802 0 38.7983 0C39.7323 0 40.6187 0.317158 41.4577 0.951475L41.4814 0.975262C43.8716 2.86235 45.9057 5.10625 47.5836 7.70695C49.2774 10.2918 50.4962 13.1304 51.2402 16.2226C52 19.3149 52.19 22.55 51.81 25.9277H51.7863C51.4222 28.9883 50.5754 31.8744 49.2457 34.5861C47.916 37.282 46.2065 39.6924 44.117 41.8173C42.0275 43.9581 39.6452 45.7104 36.97 47.0742C34.2949 48.4539 31.4298 49.3498 28.3747 49.7621C27.1875 49.9207 26.0003 50 24.8131 50H24.4094C20.9903 49.9841 17.7532 49.3657 14.6981 48.1446C11.6431 46.9394 8.9046 45.2664 6.48271 43.1256C4.07665 40.9848 2.1059 38.4951 0.57045 35.6565C0.0797404 34.7368 -0.0943825 33.8091 0.0480816 32.8735C0.206375 31.9378 0.562535 31.1529 1.11656 30.5186C1.67059 29.8525 2.41457 29.3689 3.3485 29.0676C4.29826 28.7663 5.2876 28.8455 6.3165 29.3054C8.08939 30.0666 9.97308 30.582 11.9676 30.8516C13.9621 31.1053 16.0357 31.0339 18.1885 30.6375C20.8004 30.1618 23.2143 29.2103 25.4304 27.7831C27.6465 26.34 29.5302 24.548 31.0815 22.4072C32.6328 20.2506 33.7092 17.8719 34.3107 15.2712C34.7223 13.5585 34.9122 11.8934 34.8806 10.2759C34.8489 8.65842 34.651 7.10434 34.287 5.6137ZM18.7821 34.0152C16.7243 34.3958 14.7061 34.5147 12.7274 34.372C10.7645 34.2134 8.88086 33.8408 7.07631 33.254C7.04465 33.2382 7.00508 33.2223 6.95759 33.2065C6.92593 33.1906 6.88636 33.1748 6.83887 33.1589C6.50646 33.0479 6.17404 32.929 5.84162 32.8021C5.52504 32.6752 5.22428 32.5563 4.93935 32.4453C4.46447 32.2233 4.05291 32.3184 3.70466 32.7307C3.37224 33.1272 3.33267 33.5633 3.58594 34.039C3.68092 34.2293 3.79964 34.4434 3.9421 34.6813L3.96585 34.705C4.18746 35.0856 4.40907 35.4424 4.63068 35.7755C4.72565 35.9182 4.79689 36.0212 4.84437 36.0847C6.45897 38.4792 8.45346 40.517 10.8279 42.1979C13.2181 43.8947 15.8616 45.1158 18.7584 45.8611C21.671 46.6223 24.726 46.7888 27.9236 46.3606C30.5829 45.9959 33.076 45.2109 35.4029 44.0057C37.7457 42.8164 39.8351 41.294 41.6714 39.4386C43.5076 37.5674 45.0034 35.4504 46.159 33.0875C47.3303 30.7247 48.0743 28.2033 48.3909 25.5233C48.8658 21.543 48.4305 17.8005 47.085 14.2959C45.7553 10.7913 43.8004 7.79416 41.2202 5.30447C41.1727 5.24104 41.0857 5.15382 40.959 5.04282C40.6424 4.74152 40.3338 4.464 40.033 4.21028C39.8431 4.0517 39.6215 3.86933 39.3682 3.66318C38.9566 3.36188 38.5292 3.35395 38.086 3.63939C37.6586 3.90898 37.5003 4.29749 37.6111 4.80495C37.6744 5.05867 37.7378 5.33619 37.8011 5.63749L37.8248 5.68506C37.8881 6.03394 37.9515 6.39867 38.0148 6.77926C38.0148 6.81097 38.0148 6.85062 38.0148 6.89819C38.0306 6.94577 38.0464 6.98541 38.0623 7.01713C38.268 8.4602 38.3393 9.93498 38.276 11.4415C38.2285 12.948 38.0227 14.4862 37.6586 16.0561C36.9305 19.1009 35.6641 21.876 33.8596 24.3815C32.055 26.8871 29.8547 28.9803 27.2587 30.6613C24.6785 32.3422 21.853 33.4602 18.7821 34.0152Z" fill="#545F71"/>
</svg>
