<?xml version="1.0" encoding="UTF-8"?>
<svg id="fantasma" xmlns="http://www.w3.org/2000/svg" viewBox="0 0 512 512">
  <defs>
    <style>
      .cls-1 {
        fill: #c8dfee;
      }

      .cls-2 {
        opacity: .47;
      }

      .cls-2, .cls-3 {
        fill: #8fc1c9;
      }
    </style>
  </defs>
  <path id="braccio_dx" data-name="braccio dx" class="cls-1" d="M196.94,242.69s-16.24,24.49-32.09,28.68c-4.23,1.12-6.34-.78-8.34.77-8.41,6.52,32.86,41.46,31.49,51.09"/>
  <path id="corpo" class="cls-1" d="M337.28,167.61c-6.09-23.49-25.06-41.59-48.76-46.75-38.32-8.35-104.73-3.6-101.78,131.12,0,0,5.51,120.71-49.56,101.44,0,0,16.19,41.73,46.81,19.14,5.87-4.33,13.8-5.09,20.12-1.44,3.1,1.79,6.04,4.63,8.13,9.13,3.13,6.73,10.62,10.31,17.69,8.04,4.14-1.33,9.08-4.04,14.76-9.03,4.93-4.33,12.15-4.97,17.77-1.6,3.44,2.06,7.34,5.39,11.42,10.7,3.4,4.42,9.22,6.44,14.54,4.74,4.06-1.29,8.7-4.37,13.04-10.98,3.03-4.61,9.07-6.34,13.96-3.77,2.28,1.2,4.84,3.12,7.66,6.13,3.63,3.87,9.42,5.11,14.21,2.82,2.15-1.03,4.03-2.73,4.97-5.51,1.44-4.24,5.82-6.76,10.17-5.67,10.14,2.53,24.03,3.08,22.26-13.75,0,0-44.75,15.83-38.55-79.17,0,0,13.55-67.76,1.16-115.59Z"/>
  <g id="ombre-2" data-name="ombre">
    <path class="cls-2" d="M291.58,252.18c-2.88,8.44-11.68,26.88-33.34,25.11,0,0-5.44,1.02,1.41,15.04,6.24,12.79,21.69,49.62,24.34,64.49.34,1.94-1.17,3.71-3.13,3.71-13.75.02-63.84-1.65-80.15-26.2-.63-.95.6-2.03,1.44-1.26,7.22,6.67,35.91,19.04,62.63-1.27.31-.23.1-.73-.28-.66-7.8,1.34-44.46,6.84-57.61-5.98-1.08-1.05-.21-2.86,1.27-2.63,8.38,1.27,28.07,3.1,42.77-4.41,4.77-2.44,6.76-8.2,4.61-13.11-2.86-6.53-7.77-18.94-7.45-25.18.14-2.79,2.13-5.14,4.85-5.78,6.72-1.59,25.46-4.66,37.6-22.4.39-.57,1.28-.14,1.06.52Z"/>
  </g>
  <ellipse id="occhio_dx" data-name="occhio dx" class="cls-3" cx="229.08" cy="175.47" rx="12.74" ry="23.06"/>
  <ellipse id="occhio_sx" data-name="occhio sx" class="cls-3" cx="278" cy="175.47" rx="12.74" ry="23.06"/>
</svg>